<svg xmlns="http://www.w3.org/2000/svg" xmlns:xlink="http://www.w3.org/1999/xlink" width="32" height="32" viewBox="0 0 32 32">
    <defs>
        <path id="a" d="M0 0h37.098v37.097H0z"/>
    </defs>
    <g fill="none" fill-rule="evenodd" transform="translate(-3 -3)">
        <mask id="b" fill="#fff">
            <use xlink:href="#a"/>
        </mask>
        <path fill="#43A1C9" d="M14.5 25C8.71 25 4 20.29 4 14.5S8.71 4 14.5 4 25 8.71 25 14.5 20.29 25 14.5 25zm22.598 8.562L26.356 22.821A14.41 14.41 0 0 0 29 14.5C29 6.505 22.495 0 14.5 0S0 6.505 0 14.5 6.505 29 14.5 29a14.41 14.41 0 0 0 8.321-2.644l10.741 10.741 3.536-3.535z" mask="url(#b)"/>
    </g>
</svg>
