<?xml version="1.0" encoding="UTF-8"?>
<svg width="160px" height="40px" viewBox="0 0 160 40" version="1.1" xmlns="http://www.w3.org/2000/svg" xmlns:xlink="http://www.w3.org/1999/xlink">
    <!-- Generator: Sketch 59.1 (86144) - https://sketch.com -->
    <title>pytorch</title>
    <desc>Created with Sketch.</desc>
    <g id="Page-1" stroke="none" stroke-width="1" fill="none" fill-rule="evenodd">
        <g id="Artboard" transform="translate(-1355.000000, -831.000000)" fill-rule="nonzero">
            <g id="pytorch" transform="translate(1355.000000, 831.000000)">
                <g id="Group" fill="#EE4C2C">
                    <path d="M20.8,9.3 L18.7,11.4 C22.2,14.9 22.2,20.6 18.7,24.1 C15.2,27.6 9.5,27.6 6,24.1 C2.5,20.6 2.5,14.9 6,11.4 L6,11.4 L11.6,5.8 L12.3,5 L12.3,5 L12.3,0.8 L3.8,9.3 C-0.9,14 -0.9,21.5 3.8,26.2 C8.5,30.9 16,30.9 20.7,26.2 C25.5,21.5 25.5,13.9 20.8,9.3 Z" id="Path"></path>
                    <circle id="Oval" cx="16.6" cy="7.1" r="1.6"></circle>
                </g>
                <g id="Group" transform="translate(36.000000, 0.000000)" fill="#252525">
                    <path d="M6.6,20 L3,20 L3,29.3 L0.3,29.3 L0.3,2.9 C0.3,2.9 6.6,2.9 6.9,2.9 C13.9,2.9 17.2,6.3 17.2,11.2 C17.2,17 13.1,19.9 6.6,20 Z M6.8,5.4 C6.5,5.4 2.9,5.4 2.9,5.4 L2.9,17.5 L6.7,17.4 C11.7,17.3 14.4,15.3 14.4,11.2 C14.4,7.5 11.8,5.4 6.8,5.4 Z" id="Shape"></path>
                    <path d="M29.4,29.2 L27.8,33.4 C26,38.1 24.2,39.5 21.5,39.5 C20,39.5 18.9,39.1 17.7,38.6 L18.5,36.2 C19.4,36.7 20.4,37 21.5,37 C23,37 24.1,36.2 25.5,32.5 L26.8,29.1 L19.3,10 L22.1,10 L28.2,26 L34.2,10 L36.9,10 L29.4,29.2 Z" id="Path"></path>
                    <polygon id="Path" points="45.9 5.5 45.9 29.4 43.2 29.4 43.2 5.5 33.9 5.5 33.9 2.9 55.2 2.9 55.2 5.4 45.9 5.4"></polygon>
                    <path d="M62.8,29.9 C57.4,29.9 53.4,25.9 53.4,19.7 C53.4,13.5 57.5,9.4 63,9.4 C68.4,9.4 72.3,13.4 72.3,19.6 C72.3,25.8 68.2,29.9 62.8,29.9 Z M62.9,11.8 C58.8,11.8 56.1,15.1 56.1,19.6 C56.1,24.3 58.9,27.5 63,27.5 C67.1,27.5 69.8,24.2 69.8,19.7 C69.8,15 67,11.8 62.9,11.8 Z" id="Shape"></path>
                    <path d="M79,29.4 L76.4,29.4 L76.4,10 L79,9.5 L79,13.6 C80.3,11.1 82.2,9.5 84.7,9.5 C86,9.5 87.2,9.9 88.1,10.4 L87.4,12.9 C86.6,12.4 85.5,12.1 84.4,12.1 C82.4,12.1 80.5,13.6 78.9,17.1 L78.9,29.4 L79,29.4 Z" id="Path"></path>
                    <path d="M98.4,29.9 C92.6,29.9 88.9,25.7 88.9,19.7 C88.9,13.6 92.9,9.4 98.4,9.4 C100.8,9.4 102.8,10 104.5,11.1 L103.8,13.5 C102.3,12.5 100.5,11.9 98.4,11.9 C94.2,11.9 91.6,15 91.6,19.6 C91.6,24.3 94.4,27.4 98.5,27.4 C100.4,27.4 102.4,26.8 103.9,25.8 L104.4,28.2 C102.7,29.3 100.6,29.9 98.4,29.9 Z" id="Path"></path>
                    <path d="M120.7,29.4 L120.7,16.9 C120.7,13.5 119.3,12 116.6,12 C114.4,12 112.2,13.1 110.6,14.8 L110.6,29.5 L108,29.5 L108,0.9 L110.6,0.4 C110.6,0.4 110.6,12.5 110.6,12.6 C112.6,10.6 115.2,9.5 117.3,9.5 C121.1,9.5 123.4,11.9 123.4,16.1 L123.4,29.4 L120.7,29.4 Z" id="Path"></path>
                </g>
            </g>
        </g>
    </g>
</svg>