<svg xmlns="http://www.w3.org/2000/svg" xmlns:xlink="http://www.w3.org/1999/xlink" width="61" height="61" viewBox="0 0 61 61">
    <g fill="none" fill-rule="evenodd" transform="translate(1 3)">
        <path fill="#43A1C9" d="M59.23 11.846L42.974 9.445 40.288 23.95l4.916.91 1.587-8.576a22.24 22.24 0 0 1 2.938 11.08c0 12.333-10.032 22.365-22.365 22.365C15.032 49.73 5 39.698 5 27.366S15.032 5 27.363 5V0C12.275 0 0 12.276 0 27.366 0 42.455 12.275 54.73 27.364 54.73c15.09 0 27.366-12.275 27.366-27.364 0-4.018-.877-7.923-2.542-11.506l6.311.932.73-4.946z" />
    </g>
</svg>
