<?xml version="1.0" encoding="UTF-8"?>
<svg width="334px" height="334px" viewBox="0 0 334 334" version="1.1" xmlns="http://www.w3.org/2000/svg" xmlns:xlink="http://www.w3.org/1999/xlink">
    <!-- Generator: Sketch 59.1 (86144) - https://sketch.com -->
    <title>stan</title>
    <desc>Created with Sketch.</desc>
    <g id="Page-1" stroke="none" stroke-width="1" fill="none" fill-rule="evenodd">
        <g id="Artboard" transform="translate(-856.000000, -551.000000)" fill-rule="nonzero">
            <g id="stan" transform="translate(856.000000, 551.000000)">
                <path d="M167.03164,0.50922 C74.98094,0.50922 0.37534,75.14599 0.37534,167.19671 C0.37534,210.6694 17.02284,250.24556 44.28164,279.91546 C64.48334,273.79303 84.88544,268.09827 101.50034,263.75921 C149.56224,251.20761 231.83694,229.99421 243.71914,203.25921 C240.37734,212.54221 229.21914,237.41546 229.21914,237.41546 C213.99504,252.26826 144.80424,268.74171 99.25034,277.50922 C84.71764,280.30624 68.13114,283.53839 51.31294,287.10296 C81.28814,316.03236 122.07704,333.85296 167.03164,333.85296 C259.08234,333.85296 333.71914,259.24743 333.71914,167.19671 C333.71914,139.86915 327.12624,114.08063 315.46914,91.32171 C285.39254,96.17434 190.50614,113.39788 166.18794,118.88421 C139.34924,124.93911 85.36234,135.94321 74.59414,154.50922 C81.27784,137.42851 101.46914,92.69671 101.46914,92.69671 C115.95064,68.93231 180.06074,51.93132 224.78164,39.57172 C235.21244,36.68893 247.67144,33.15051 260.78164,29.35297 C234.07154,11.15045 201.79234,0.50922 167.03164,0.50922 Z" id="path3042" fill="#B2001D"></path>
                <path d="M74.4613,155.12623 C71.4644,169.11163 116.36694,182.65551 156.85304,195.46451 C197.33904,208.27351 214.38569,215.19473 224.31769,221.56814 C240.41809,213.86802 244.10777,202.35226 244.10777,202.35226 C248.60307,184.62086 208.24194,161.94941 181.32714,152.00701 C154.41244,142.06461 148.38404,137.28698 128.86154,127.69219 C77.46858,141.29366 74.4613,155.12623 74.4613,155.12623 Z" id="path3044" fill="#590815"></path>
            </g>
        </g>
    </g>
</svg>