<svg width="80" height="55" viewBox="0 0 80 55" fill="none" xmlns="http://www.w3.org/2000/svg">
<path fill-rule="evenodd" clip-rule="evenodd" d="M62.0024 21.7929C61.6683 21.5531 61.0877 21.4941 60.7127 21.6622L3.67432 47.2237C3.29872 47.3923 3.13372 47.835 3.30743 48.2075L5.74445 53.4449C5.91816 53.8174 6.39675 54.1228 6.8077 54.1228L65.4842 54.1207C65.8952 54.1207 66.4306 53.8497 66.674 53.5176L79.8568 35.5331C80.0997 35.2016 80.0254 34.7338 79.6913 34.4939L62.0024 21.7929Z" fill="#43A1C9"/>
<path fill-rule="evenodd" clip-rule="evenodd" d="M42.244 0.00566975C41.8351 -0.0368602 41.2612 0.164516 40.9686 0.454027L0.285863 40.6909C-0.00621083 40.9804 -0.0881964 41.5143 0.103957 41.8776L1.91942 45.3123C2.11158 45.6756 2.57582 45.8355 2.9509 45.6674L57.6219 21.1476C57.9975 20.9796 58.3424 20.5076 58.3885 20.0987L60.37 2.64918C60.4166 2.2408 60.1199 1.87135 59.7105 1.82882L42.244 0.00566975Z" fill="#43A1C9"/>
</svg>
