<svg width="699px" height="143px" viewBox="0 0 699 143" version="1.1" xmlns="http://www.w3.org/2000/svg" xmlns:xlink="http://www.w3.org/1999/xlink">
    <g id="Page-1" stroke="none" stroke-width="1" fill="none" fill-rule="evenodd">
        <g id="Dragonfly-logo-RGB" transform="translate(-49.000000, -50.000000)">
            <g id="logo" transform="translate(49.836121, 50.731935)">
                <path d="M397.841879,137.884065 C400.599879,137.884065 402.737879,137.173065 404.256879,135.747065 C405.774879,134.322065 406.533879,132.311065 406.533879,129.714065 C406.533879,127.141065 405.774879,125.142065 404.256879,123.716065 C402.737879,122.291065 400.611879,121.579065 397.877879,121.579065 L394.087879,121.579065 L394.087879,137.884065 L397.841879,137.884065 Z M391.114879,140.389065 C390.731879,139.995065 390.540879,139.530065 390.540879,138.997065 L390.540879,120.500065 C390.540879,119.898065 390.725879,119.412065 391.096879,119.041065 C391.467879,118.669065 391.919879,118.484065 392.453879,118.484065 L397.945879,118.484065 C399.869879,118.484065 401.585879,118.740065 403.092879,119.250065 C404.598879,119.760065 405.873879,120.495065 406.916879,121.456065 C407.959879,122.419065 408.759879,123.590065 409.315879,124.968065 C409.871879,126.348065 410.149879,127.918065 410.149879,129.680065 C410.149879,131.441065 409.865879,133.018065 409.297879,134.408065 C408.729879,135.799065 407.912879,136.981065 406.846879,137.955065 C405.780879,138.928065 404.482879,139.675065 402.952879,140.197065 C401.422879,140.718065 399.696879,140.979065 397.772879,140.979065 L392.522879,140.979065 C391.965879,140.979065 391.496879,140.782065 391.114879,140.389065 L391.114879,140.389065 Z" id="Fill-1" fill="#3A3B39"></path>
                <path d="M426.177879,138.893065 C426.919879,138.893065 427.608879,138.783065 428.246879,138.563065 C428.884879,138.342065 429.428879,138.029065 429.880879,137.624065 C430.332879,137.220065 430.685879,136.737065 430.941879,136.181065 C431.195879,135.624065 431.323879,135.022065 431.323879,134.374065 L431.323879,133.087065 L430.384879,133.122065 C427.927879,133.215065 426.084879,133.511065 424.856879,134.009065 C423.627879,134.507065 423.014879,135.325065 423.014879,136.459065 C423.014879,137.201065 423.291879,137.792065 423.848879,138.233065 C424.404879,138.674065 425.180879,138.893065 426.177879,138.893065 Z M431.323879,130.584065 C431.323879,129.309065 430.969879,128.336065 430.263879,127.663065 C429.555879,126.991065 428.529879,126.655065 427.186879,126.655065 C425.911879,126.655065 424.891879,126.939065 424.126879,127.506065 C423.361879,128.075065 422.781879,128.741065 422.388879,129.505065 C421.947879,129.484065 421.593879,129.420065 421.327879,129.315065 C421.061879,129.211065 420.817879,129.043065 420.597879,128.810065 C420.377879,128.580065 420.266879,128.253065 420.266879,127.838065 C420.266879,127.444065 420.417879,127.008065 420.718879,126.533065 C421.019879,126.059065 421.471879,125.623065 422.075879,125.229065 C422.677879,124.835065 423.424879,124.506065 424.317879,124.238065 C425.209879,123.972065 426.246879,123.839065 427.429879,123.839065 C429.816879,123.839065 431.630879,124.418065 432.870879,125.578065 C434.110879,126.737065 434.730879,128.381065 434.730879,130.513065 L434.730879,140.771065 C434.730879,140.863065 434.603879,140.951065 434.348879,141.031065 C434.092879,141.112065 433.803879,141.153065 433.479879,141.153065 C432.875879,141.153065 432.377879,140.962065 431.983879,140.579065 C431.589879,140.197065 431.380879,139.485065 431.357879,138.442065 C430.732879,139.345065 429.897879,140.059065 428.854879,140.579065 C427.812879,141.100065 426.640879,141.361065 425.343879,141.361065 C423.535879,141.361065 422.132879,140.927065 421.136879,140.059065 C420.139879,139.189065 419.641879,138.036065 419.641879,136.599065 C419.641879,134.652065 420.563879,133.238065 422.404879,132.356065 C424.247879,131.476065 427.069879,131.002065 430.871879,130.931065 L431.323879,130.931065 L431.323879,130.584065 L431.323879,130.584065 Z" id="Fill-2" fill="#3A3B39"></path>
                <path d="M445.439879,127.072065 C444.905879,127.072065 444.523879,126.963065 444.291879,126.742065 C444.060879,126.522065 443.944879,126.204065 443.944879,125.786065 L443.944879,125.542065 C443.944879,125.125065 444.060879,124.807065 444.291879,124.586065 C444.523879,124.366065 444.905879,124.257065 445.439879,124.257065 L446.656879,124.257065 L446.656879,121.683065 C446.656879,121.081065 446.794879,120.657065 447.073879,120.415065 C447.351879,120.170065 447.722879,120.049065 448.185879,120.049065 L448.533879,120.049065 C448.997879,120.049065 449.362879,120.159065 449.628879,120.379065 C449.894879,120.600065 450.028879,121.034065 450.028879,121.683065 L450.028879,124.257065 L453.818879,124.257065 C454.351879,124.257065 454.728879,124.361065 454.948879,124.570065 C455.168879,124.777065 455.278879,125.090065 455.278879,125.507065 L455.278879,125.751065 C455.278879,126.192065 455.162879,126.522065 454.930879,126.742065 C454.698879,126.963065 454.316879,127.072065 453.783879,127.072065 L449.994879,127.072065 L449.994879,135.520065 C449.994879,136.563065 450.161879,137.341065 450.498879,137.851065 C450.833879,138.361065 451.407879,138.615065 452.218879,138.615065 C452.752879,138.615065 453.215879,138.505065 453.609879,138.285065 C454.003879,138.065065 454.328879,137.780065 454.583879,137.433065 C454.606879,137.410065 454.670879,137.422065 454.774879,137.467065 C454.878879,137.514065 454.988879,137.595065 455.105879,137.711065 C455.220879,137.827065 455.324879,137.984065 455.418879,138.181065 C455.509879,138.378065 455.556879,138.615065 455.556879,138.893065 C455.556879,139.542065 455.220879,140.128065 454.548879,140.649065 C453.875879,141.171065 452.914879,141.432065 451.662879,141.432065 C449.924879,141.432065 448.655879,140.962065 447.856879,140.023065 C447.055879,139.084065 446.656879,137.711065 446.656879,135.904065 L446.656879,127.072065 L445.439879,127.072065" id="Fill-3" fill="#3A3B39"></path>
                <path d="M470.576879,138.893065 C471.317879,138.893065 472.007879,138.783065 472.644879,138.563065 C473.282879,138.342065 473.827879,138.029065 474.278879,137.624065 C474.730879,137.220065 475.084879,136.737065 475.340879,136.181065 C475.594879,135.624065 475.721879,135.022065 475.721879,134.374065 L475.721879,133.087065 L474.782879,133.122065 C472.325879,133.215065 470.483879,133.511065 469.255879,134.009065 C468.026879,134.507065 467.412879,135.325065 467.412879,136.459065 C467.412879,137.201065 467.690879,137.792065 468.246879,138.233065 C468.802879,138.674065 469.579879,138.893065 470.576879,138.893065 Z M475.721879,130.584065 C475.721879,129.309065 475.368879,128.336065 474.661879,127.663065 C473.954879,126.991065 472.928879,126.655065 471.584879,126.655065 C470.309879,126.655065 469.290879,126.939065 468.525879,127.506065 C467.760879,128.075065 467.180879,128.741065 466.786879,129.505065 C466.345879,129.484065 465.992879,129.420065 465.726879,129.315065 C465.459879,129.211065 465.215879,129.043065 464.996879,128.810065 C464.775879,128.580065 464.665879,128.253065 464.665879,127.838065 C464.665879,127.444065 464.816879,127.008065 465.117879,126.533065 C465.418879,126.059065 465.870879,125.623065 466.473879,125.229065 C467.076879,124.835065 467.823879,124.506065 468.716879,124.238065 C469.608879,123.972065 470.645879,123.839065 471.827879,123.839065 C474.214879,123.839065 476.029879,124.418065 477.269879,125.578065 C478.508879,126.737065 479.129879,128.381065 479.129879,130.513065 L479.129879,140.771065 C479.129879,140.863065 479.001879,140.951065 478.746879,141.031065 C478.491879,141.112065 478.201879,141.153065 477.877879,141.153065 C477.274879,141.153065 476.776879,140.962065 476.382879,140.579065 C475.987879,140.197065 475.779879,139.485065 475.756879,138.442065 C475.131879,139.345065 474.296879,140.059065 473.253879,140.579065 C472.210879,141.100065 471.039879,141.361065 469.741879,141.361065 C467.933879,141.361065 466.530879,140.927065 465.534879,140.059065 C464.538879,139.189065 464.040879,138.036065 464.040879,136.599065 C464.040879,134.652065 464.961879,133.238065 466.803879,132.356065 C468.646879,131.476065 471.468879,131.002065 475.270879,130.931065 L475.721879,130.931065 L475.721879,130.584065 L475.721879,130.584065 Z" id="Fill-4" fill="#3A3B39"></path>
                <path d="M510.453879,141.432065 C509.110879,141.432065 507.911879,141.286065 506.856879,140.996065 C505.801879,140.707065 504.914879,140.336065 504.196879,139.884065 C503.477879,139.433065 502.933879,138.945065 502.562879,138.423065 C502.191879,137.903065 502.006879,137.410065 502.006879,136.945065 C502.006879,136.646065 502.086879,136.373065 502.249879,136.129065 C502.411879,135.885065 502.591879,135.677065 502.788879,135.503065 C502.985879,135.330065 503.170879,135.197065 503.344879,135.103065 C503.518879,135.012065 503.617879,134.988065 503.640879,135.034065 C504.288879,135.985065 505.192879,136.796065 506.352879,137.467065 C507.510879,138.140065 508.867879,138.475065 510.419879,138.475065 C511.994879,138.475065 513.206879,138.169065 514.054879,137.555065 C514.899879,136.940065 515.323879,136.077065 515.323879,134.965065 C515.323879,134.339065 515.172879,133.817065 514.869879,133.400065 C514.569879,132.982065 514.158879,132.636065 513.637879,132.356065 C513.115879,132.079065 512.513879,131.848065 511.829879,131.661065 C511.143879,131.476065 510.433879,131.303065 509.689879,131.140065 C508.831879,130.931065 507.974879,130.688065 507.116879,130.409065 C506.259879,130.131065 505.500879,129.749065 504.840879,129.263065 C504.179879,128.775065 503.640879,128.156065 503.222879,127.402065 C502.806879,126.650065 502.597879,125.705065 502.597879,124.570065 C502.597879,123.619065 502.793879,122.744065 503.188879,121.944065 C503.582879,121.145065 504.138879,120.455065 504.856879,119.874065 C505.575879,119.295065 506.426879,118.844065 507.412879,118.520065 C508.397879,118.195065 509.494879,118.032065 510.699879,118.032065 C511.951879,118.032065 513.055879,118.166065 514.017879,118.432065 C514.980879,118.700065 515.784879,119.029065 516.434879,119.423065 C517.083879,119.817065 517.575879,120.246065 517.911879,120.709065 C518.248879,121.173065 518.416879,121.613065 518.416879,122.030065 C518.416879,122.355065 518.335879,122.644065 518.174879,122.900065 C518.009879,123.156065 517.824879,123.370065 517.615879,123.543065 C517.406879,123.716065 517.218879,123.844065 517.043879,123.925065 C516.868879,124.007065 516.770879,124.036065 516.747879,124.013065 C516.144879,123.156065 515.323879,122.436065 514.280879,121.857065 C513.236879,121.278065 512.055879,120.988065 510.732879,120.988065 C509.319879,120.988065 508.188879,121.300065 507.343879,121.926065 C506.496879,122.552065 506.074879,123.386065 506.074879,124.430065 C506.074879,125.056065 506.207879,125.559065 506.474879,125.943065 C506.740879,126.325065 507.105879,126.638065 507.568879,126.880065 C508.032879,127.124065 508.588879,127.328065 509.238879,127.489065 C509.887879,127.651065 510.604879,127.826065 511.392879,128.011065 C512.344879,128.220065 513.270879,128.486065 514.175879,128.810065 C515.077879,129.135065 515.878879,129.553065 516.575879,130.062065 C517.268879,130.572065 517.831879,131.203065 518.261879,131.957065 C518.689879,132.710065 518.904879,133.632065 518.904879,134.721065 C518.904879,136.807065 518.157879,138.447065 516.659879,139.641065 C515.165879,140.835065 513.098879,141.432065 510.453879,141.432065" id="Fill-5" fill="#3A3B39"></path>
                <path d="M536.913879,141.432065 C535.661879,141.432065 534.501879,141.212065 533.436879,140.771065 C532.369879,140.331065 531.448879,139.722065 530.673879,138.945065 C529.895879,138.169065 529.293879,137.237065 528.864879,136.146065 C528.434879,135.057065 528.221879,133.876065 528.221879,132.600065 C528.221879,131.326065 528.441879,130.155065 528.882879,129.088065 C529.321879,128.023065 529.924879,127.101065 530.689879,126.325065 C531.453879,125.549065 532.369879,124.940065 533.436879,124.499065 C534.501879,124.060065 535.661879,123.839065 536.913879,123.839065 C538.165879,123.839065 539.237879,124.007065 540.129879,124.342065 C541.021879,124.679065 541.763879,125.085065 542.353879,125.559065 C542.946879,126.035065 543.380879,126.539065 543.658879,127.072065 C543.935879,127.605065 544.075879,128.068065 544.075879,128.462065 C544.075879,128.810065 543.971879,129.095065 543.762879,129.315065 C543.553879,129.536065 543.328879,129.702065 543.084879,129.818065 C542.842879,129.935065 542.609879,130.005065 542.389879,130.027065 C542.168879,130.051065 542.047879,130.039065 542.024879,129.992065 C541.630879,129.066065 541.051879,128.289065 540.285879,127.663065 C539.521879,127.037065 538.419879,126.724065 536.982879,126.724065 C536.194879,126.724065 535.464879,126.870065 534.792879,127.159065 C534.119879,127.449065 533.540879,127.855065 533.054879,128.376065 C532.568879,128.898065 532.184879,129.517065 531.906879,130.236065 C531.628879,130.954065 531.489879,131.744065 531.489879,132.600065 C531.489879,133.459065 531.628879,134.251065 531.906879,134.982065 C532.184879,135.712065 532.568879,136.338065 533.054879,136.860065 C533.540879,137.381065 534.119879,137.792065 534.792879,138.093065 C535.464879,138.394065 536.194879,138.546065 536.982879,138.546065 C538.395879,138.546065 539.491879,138.233065 540.268879,137.607065 C541.044879,136.981065 541.630879,136.205065 542.024879,135.278065 C542.047879,135.231065 542.168879,135.220065 542.389879,135.242065 C542.609879,135.266065 542.842879,135.330065 543.084879,135.434065 C543.328879,135.539065 543.553879,135.707065 543.762879,135.937065 C543.971879,136.170065 544.075879,136.471065 544.075879,136.841065 C544.075879,137.213065 543.935879,137.666065 543.658879,138.198065 C543.380879,138.731065 542.946879,139.236065 542.353879,139.710065 C541.763879,140.185065 541.016879,140.592065 540.112879,140.927065 C539.208879,141.264065 538.141879,141.432065 536.913879,141.432065" id="Fill-6" fill="#3A3B39"></path>
                <path d="M554.696879,140.771065 C554.406879,140.540065 554.262879,140.111065 554.262879,139.485065 L554.262879,125.751065 C554.262879,125.125065 554.406879,124.691065 554.696879,124.447065 C554.985879,124.204065 555.362879,124.082065 555.827879,124.082065 L556.173879,124.082065 C556.638879,124.082065 557.008879,124.198065 557.286879,124.430065 C557.565879,124.662065 557.703879,125.103065 557.703879,125.751065 L557.703879,139.485065 C557.703879,140.111065 557.565879,140.540065 557.286879,140.771065 C557.008879,141.003065 556.638879,141.119065 556.173879,141.119065 L555.827879,141.119065 C555.362879,141.119065 554.985879,141.003065 554.696879,140.771065 Z M556.000879,120.675065 C555.350879,120.675065 554.847879,120.507065 554.487879,120.170065 C554.127879,119.836065 553.949879,119.366065 553.949879,118.762065 C553.949879,118.136065 554.127879,117.656065 554.487879,117.320065 C554.847879,116.983065 555.362879,116.815065 556.035879,116.815065 C557.378879,116.815065 558.051879,117.464065 558.051879,118.762065 C558.051879,120.038065 557.366879,120.675065 556.000879,120.675065 L556.000879,120.675065 Z" id="Fill-7" fill="#3A3B39"></path>
                <path d="M581.312879,131.210065 C581.218879,129.749065 580.755879,128.590065 579.920879,127.733065 C579.086879,126.875065 577.973879,126.446065 576.583879,126.446065 C575.888879,126.446065 575.244879,126.562065 574.653879,126.794065 C574.062879,127.027065 573.536879,127.356065 573.071879,127.786065 C572.607879,128.215065 572.225879,128.718065 571.923879,129.297065 C571.622879,129.877065 571.413879,130.513065 571.297879,131.210065 L581.312879,131.210065 Z M571.854879,135.643065 C572.156879,136.281065 572.549879,136.824065 573.036879,137.277065 C573.524879,137.728065 574.103879,138.081065 574.774879,138.337065 C575.447879,138.593065 576.178879,138.719065 576.965879,138.719065 C577.707879,138.719065 578.355879,138.645065 578.912879,138.494065 C579.469879,138.342065 579.956879,138.140065 580.373879,137.884065 C580.791879,137.630065 581.149879,137.334065 581.450879,136.998065 C581.751879,136.663065 582.007879,136.309065 582.216879,135.937065 C582.238879,135.916065 582.342879,135.927065 582.529879,135.973065 C582.714879,136.020065 582.916879,136.101065 583.136879,136.217065 C583.357879,136.333065 583.559879,136.506065 583.746879,136.737065 C583.931879,136.969065 584.023879,137.270065 584.023879,137.642065 C584.023879,138.012065 583.867879,138.418065 583.554879,138.859065 C583.241879,139.300065 582.776879,139.710065 582.164879,140.092065 C581.549879,140.474065 580.801879,140.794065 579.920879,141.048065 C579.040879,141.304065 578.031879,141.432065 576.896879,141.432065 C575.575879,141.432065 574.369879,141.223065 573.280879,140.806065 C572.191879,140.389065 571.264879,139.798065 570.498879,139.032065 C569.734879,138.268065 569.137879,137.346065 568.707879,136.269065 C568.278879,135.190065 568.065879,134.002065 568.065879,132.705065 C568.065879,131.431065 568.278879,130.253065 568.707879,129.176065 C569.137879,128.097065 569.734879,127.165065 570.498879,126.377065 C571.264879,125.589065 572.167879,124.968065 573.211879,124.517065 C574.254879,124.065065 575.388879,123.839065 576.617879,123.839065 C577.822879,123.839065 578.917879,124.041065 579.904879,124.447065 C580.888879,124.852065 581.735879,125.426065 582.441879,126.168065 C583.148879,126.910065 583.693879,127.797065 584.075879,128.827065 C584.457879,129.859065 584.649879,131.002065 584.649879,132.252065 L584.649879,132.531065 C584.649879,132.901065 584.574879,133.162065 584.424879,133.312065 C584.272879,133.464065 584.000879,133.539065 583.606879,133.539065 L571.297879,133.539065 C571.368879,134.303065 571.553879,135.005065 571.854879,135.643065 L571.854879,135.643065 Z" id="Fill-8" fill="#3A3B39"></path>
                <path d="M598.208879,126.794065 C598.787879,125.912065 599.541879,125.201065 600.468879,124.655065 C601.396879,124.112065 602.496879,123.839065 603.772879,123.839065 C604.884879,123.839065 605.845879,124.019065 606.656879,124.378065 C607.468879,124.738065 608.141879,125.236065 608.674879,125.872065 C609.206879,126.510065 609.600879,127.264065 609.856879,128.132065 C610.110879,129.002065 610.238879,129.958065 610.238879,131.002065 L610.238879,139.485065 C610.238879,140.111065 610.093879,140.540065 609.803879,140.771065 C609.514879,141.003065 609.149879,141.119065 608.708879,141.119065 L608.326879,141.119065 C607.861879,141.119065 607.491879,141.003065 607.213879,140.771065 C606.936879,140.540065 606.796879,140.111065 606.796879,139.485065 L606.796879,131.419065 C606.796879,130.005065 606.459879,128.891065 605.788879,128.080065 C605.115879,127.269065 604.166879,126.863065 602.937879,126.863065 C601.825879,126.863065 600.867879,127.131065 600.068879,127.663065 C599.269879,128.196065 598.661879,128.903065 598.244879,129.785065 L598.244879,139.485065 C598.244879,140.111065 598.097879,140.540065 597.808879,140.771065 C597.518879,141.003065 597.153879,141.119065 596.714879,141.119065 L596.330879,141.119065 C595.867879,141.119065 595.495879,141.003065 595.218879,140.771065 C594.940879,140.540065 594.800879,140.111065 594.800879,139.485065 L594.800879,124.465065 C594.800879,124.418065 594.923879,124.342065 595.166879,124.238065 C595.410879,124.134065 595.704879,124.082065 596.053879,124.082065 C596.562879,124.082065 597.037879,124.262065 597.478879,124.622065 C597.919879,124.980065 598.161879,125.705065 598.208879,126.794065" id="Fill-9" fill="#3A3B39"></path>
                <path d="M628.943879,141.432065 C627.691879,141.432065 626.531879,141.212065 625.466879,140.771065 C624.399879,140.331065 623.478879,139.722065 622.703879,138.945065 C621.925879,138.169065 621.323879,137.237065 620.894879,136.146065 C620.464879,135.057065 620.251879,133.876065 620.251879,132.600065 C620.251879,131.326065 620.471879,130.155065 620.912879,129.088065 C621.351879,128.023065 621.954879,127.101065 622.719879,126.325065 C623.483879,125.549065 624.399879,124.940065 625.466879,124.499065 C626.531879,124.060065 627.691879,123.839065 628.943879,123.839065 C630.195879,123.839065 631.267879,124.007065 632.159879,124.342065 C633.051879,124.679065 633.793879,125.085065 634.384879,125.559065 C634.976879,126.035065 635.410879,126.539065 635.688879,127.072065 C635.965879,127.605065 636.105879,128.068065 636.105879,128.462065 C636.105879,128.810065 636.001879,129.095065 635.792879,129.315065 C635.583879,129.536065 635.358879,129.702065 635.114879,129.818065 C634.872879,129.935065 634.639879,130.005065 634.419879,130.027065 C634.198879,130.051065 634.077879,130.039065 634.054879,129.992065 C633.660879,129.066065 633.081879,128.289065 632.315879,127.663065 C631.551879,127.037065 630.449879,126.724065 629.012879,126.724065 C628.224879,126.724065 627.494879,126.870065 626.822879,127.159065 C626.149879,127.449065 625.570879,127.855065 625.084879,128.376065 C624.598879,128.898065 624.214879,129.517065 623.936879,130.236065 C623.658879,130.954065 623.519879,131.744065 623.519879,132.600065 C623.519879,133.459065 623.658879,134.251065 623.936879,134.982065 C624.214879,135.712065 624.598879,136.338065 625.084879,136.860065 C625.570879,137.381065 626.149879,137.792065 626.822879,138.093065 C627.494879,138.394065 628.224879,138.546065 629.012879,138.546065 C630.425879,138.546065 631.521879,138.233065 632.298879,137.607065 C633.074879,136.981065 633.660879,136.205065 634.054879,135.278065 C634.077879,135.231065 634.198879,135.220065 634.419879,135.242065 C634.639879,135.266065 634.872879,135.330065 635.114879,135.434065 C635.358879,135.539065 635.583879,135.707065 635.792879,135.937065 C636.001879,136.170065 636.105879,136.471065 636.105879,136.841065 C636.105879,137.213065 635.965879,137.666065 635.688879,138.198065 C635.410879,138.731065 634.976879,139.236065 634.384879,139.710065 C633.793879,140.185065 633.046879,140.592065 632.142879,140.927065 C631.238879,141.264065 630.171879,141.432065 628.943879,141.432065" id="Fill-10" fill="#3A3B39"></path>
                <path d="M658.391879,131.210065 C658.297879,129.749065 657.834879,128.590065 657.000879,127.733065 C656.165879,126.875065 655.053879,126.446065 653.663879,126.446065 C652.968879,126.446065 652.323879,126.562065 651.732879,126.794065 C651.142879,127.027065 650.615879,127.356065 650.150879,127.786065 C649.686879,128.215065 649.304879,128.718065 649.003879,129.297065 C648.701879,129.877065 648.493879,130.513065 648.377879,131.210065 L658.391879,131.210065 Z M648.934879,135.643065 C649.235879,136.281065 649.629879,136.824065 650.115879,137.277065 C650.603879,137.728065 651.182879,138.081065 651.853879,138.337065 C652.527879,138.593065 653.257879,138.719065 654.045879,138.719065 C654.787879,138.719065 655.435879,138.645065 655.992879,138.494065 C656.549879,138.342065 657.035879,138.140065 657.452879,137.884065 C657.870879,137.630065 658.228879,137.334065 658.529879,136.998065 C658.831879,136.663065 659.087879,136.309065 659.295879,135.937065 C659.317879,135.916065 659.421879,135.927065 659.608879,135.973065 C659.793879,136.020065 659.995879,136.101065 660.216879,136.217065 C660.436879,136.333065 660.638879,136.506065 660.825879,136.737065 C661.010879,136.969065 661.103879,137.270065 661.103879,137.642065 C661.103879,138.012065 660.946879,138.418065 660.633879,138.859065 C660.320879,139.300065 659.856879,139.710065 659.243879,140.092065 C658.629879,140.474065 657.880879,140.794065 657.000879,141.048065 C656.120879,141.304065 655.110879,141.432065 653.976879,141.432065 C652.655879,141.432065 651.448879,141.223065 650.359879,140.806065 C649.270879,140.389065 648.343879,139.798065 647.577879,139.032065 C646.813879,138.268065 646.216879,137.346065 645.787879,136.269065 C645.358879,135.190065 645.144879,134.002065 645.144879,132.705065 C645.144879,131.431065 645.358879,130.253065 645.787879,129.176065 C646.216879,128.097065 646.813879,127.165065 647.577879,126.377065 C648.343879,125.589065 649.247879,124.968065 650.290879,124.517065 C651.333879,124.065065 652.468879,123.839065 653.696879,123.839065 C654.901879,123.839065 655.997879,124.041065 656.983879,124.447065 C657.967879,124.852065 658.814879,125.426065 659.521879,126.168065 C660.228879,126.910065 660.773879,127.797065 661.155879,128.827065 C661.537879,129.859065 661.729879,131.002065 661.729879,132.252065 L661.729879,132.531065 C661.729879,132.901065 661.653879,133.162065 661.503879,133.312065 C661.352879,133.464065 661.079879,133.539065 660.685879,133.539065 L648.377879,133.539065 C648.447879,134.303065 648.632879,135.005065 648.934879,135.643065 L648.934879,135.643065 Z" id="Fill-11" fill="#3A3B39"></path>
                <path d="M200.931879,94.8250649 L204.004879,94.8250649 C215.300879,94.8250649 220.035879,91.0040649 220.035879,80.7050649 C220.035879,70.4880649 215.300879,66.6670649 204.004879,66.6670649 L200.931879,66.6670649 L200.931879,94.8250649 Z M187.475879,55.7860649 L204.004879,55.7860649 C226.846879,55.7860649 233.574879,66.9160649 233.574879,80.7050649 C233.574879,94.4920649 226.846879,105.622065 204.004879,105.622065 C202.426879,105.622065 187.475879,105.622065 187.475879,105.622065 L187.475879,55.7860649 L187.475879,55.7860649 Z" id="Fill-12" fill="#3A3B39"></path>
                <path d="M262.558879,66.5010649 L262.558879,76.8010649 L272.525879,76.8010649 C277.011879,76.8010649 279.336879,74.7240649 279.336879,71.6510649 C279.336879,68.4950649 277.011879,66.5010649 272.525879,66.5010649 L262.558879,66.5010649 Z M290.799879,93.2460649 C291.878879,95.5720649 292.626879,97.0670649 295.201879,97.0670649 C296.032879,97.0670649 297.028879,96.9010649 297.859879,96.5690649 L297.859879,104.626065 C296.032879,105.373065 292.875879,106.453065 288.805879,106.453065 C284.818879,106.453065 281.247879,104.792065 279.752879,101.635065 C276.180879,94.0770649 276.845879,87.1830649 267.210879,87.1830649 C264.967879,87.1830649 263.306879,87.5980649 262.558879,87.8470649 L262.558879,105.622065 L249.102879,105.622065 L249.102879,55.7860649 L272.775879,55.7860649 C285.981879,55.7860649 292.626879,63.0120649 292.626879,71.4020649 C292.626879,76.4690649 290.300879,81.2030649 285.566879,84.1930649 C287.642879,86.6020649 289.220879,89.6750649 290.799879,93.2460649 L290.799879,93.2460649 Z" id="Fill-13" fill="#3A3B39"></path>
                <path d="M340.216879,86.5190649 L333.821879,69.9070649 L327.425879,86.5190649 L340.216879,86.5190649 Z M324.690879,93.7260649 L320.116879,105.622065 L306.660879,105.622065 L326.013879,55.7860649 L341.628879,55.7860649 L360.981879,105.622065 L347.525879,105.622065 L344.286879,97.1500649 L326.749879,97.1500649 L324.690879,93.7260649 L324.690879,93.7260649 Z" id="Fill-14" fill="#3A3B39"></path>
                <path d="M370.032879,80.7050649 C370.032879,65.4210649 377.341879,54.9560649 395.116879,54.9560649 C403.421879,54.9560649 408.322879,56.6170649 412.392879,57.8630649 L412.392879,69.7400649 C408.987879,68.4120649 403.421879,66.5840649 396.445879,66.5840649 C387.557879,66.5840649 383.487879,71.6510649 383.487879,80.7050649 C383.487879,89.9240649 385.896879,95.1570649 396.528879,95.1570649 C398.521879,95.1570649 400.515879,94.8250649 401.760879,94.3260649 L401.760879,88.3460649 L394.451879,88.3460649 L394.451879,77.8810649 L415.216879,77.8810649 L415.216879,103.297065 C409.236879,103.297065 402.342879,106.453065 393.953879,106.453065 C376.095879,106.453065 370.032879,96.0700649 370.032879,80.7050649" id="Fill-15" fill="#3A3B39"></path>
                <path d="M454.002879,65.8370649 C446.194879,65.8370649 444.201879,71.5680649 444.201879,80.7050649 C444.201879,89.9240649 446.194879,95.6550649 454.002879,95.6550649 C461.809879,95.6550649 463.803879,89.9240649 463.803879,80.7050649 C463.803879,71.5680649 461.809879,65.8370649 454.002879,65.8370649 Z M454.002879,106.453065 C436.809879,106.453065 430.745879,95.9870649 430.745879,80.7050649 C430.745879,65.4210649 436.809879,54.9560649 454.002879,54.9560649 C471.196879,54.9560649 477.259879,65.4210649 477.259879,80.7050649 C477.259879,95.9870649 471.196879,106.453065 454.002879,106.453065 L454.002879,106.453065 Z" id="Fill-16" fill="#3A3B39"></path>
                <polyline id="Fill-17" fill="#3A3B39" points="505.247879 105.622065 492.788879 105.622065 492.788879 55.7860649 505.081879 55.7860649 524.184879 83.8610649 524.184879 55.7860649 536.644879 55.7860649 536.644879 105.622065 524.351879 105.622065 505.247879 77.5480649 505.247879 105.622065"></polyline>
                <polyline id="Fill-18" fill="#3A3B39" points="569.366879 105.622065 555.911879 105.622065 555.911879 55.7860649 590.463879 55.7860649 590.463879 67.0830649 569.366879 67.0830649 569.366879 75.2230649 589.301879 75.2230649 589.301879 86.5190649 569.366879 86.5190649 569.366879 105.622065"></polyline>
                <polyline id="Fill-19" fill="#3A3B39" points="642.705879 94.3260649 642.705879 105.622065 608.153879 105.622065 608.153879 55.7860649 621.609879 55.7860649 621.609879 94.3260649 642.705879 94.3260649"></polyline>
                <polyline id="Fill-20" fill="#3A3B39" points="683.568879 55.7860649 672.714879 77.1590649 661.859879 55.7860649 647.323879 55.7860649 663.840879 88.3070649 667.052879 88.3070649 658.257879 105.622065 672.793879 105.622065 698.104879 55.7860649 683.568879 55.7860649"></polyline>
                <path d="M121.003879,42.5290649 C120.351879,42.0610649 119.218879,41.9460649 118.486879,42.2740649 L7.17287913,92.1590649 C6.43987913,92.4880649 6.11787913,93.3520649 6.45687913,94.0790649 L11.2128791,104.300065 C11.5518791,105.027065 12.4858791,105.623065 13.2878791,105.623065 L127.798879,105.619065 C128.600879,105.619065 129.645879,105.090065 130.120879,104.442065 L155.847879,69.3440649 C156.321879,68.6970649 156.176879,67.7840649 155.524879,67.3160649 L121.003879,42.5290649" id="Fill-21" fill="#288EB2"></path>
                <path d="M82.4418791,0.0110648952 C81.6438791,-0.0719351048 80.5238791,0.321064895 79.9528791,0.886064895 L0.557879131,79.4110649 C-0.0121208692,79.9760649 -0.172120869,81.0180649 0.202879131,81.7270649 L3.74587913,88.4300649 C4.12087913,89.1390649 5.02687913,89.4510649 5.75887913,89.1230649 L112.452879,41.2710649 C113.185879,40.9430649 113.858879,40.0220649 113.948879,39.2240649 L117.815879,5.1700649 C117.906879,4.3730649 117.327879,3.6520649 116.528879,3.5690649 L82.4418791,0.0110648952" id="Fill-22" fill="#288EB2"></path>
            </g>
        </g>
    </g>
</svg>