<?xml version="1.0" encoding="utf-8"?>
<!-- Generator: Adobe Illustrator 21.1.0, SVG Export Plug-In . SVG Version: 6.00 Build 0)  -->
<svg version="1.1" id="Layer_1" xmlns="http://www.w3.org/2000/svg" xmlns:xlink="http://www.w3.org/1999/xlink" x="0px" y="0px"
	 viewBox="0 0 600 600" style="enable-background:new 0 0 600 600;" xml:space="preserve">
<style type="text/css">
	.st0{fill:#E5DECD;}
	.st1{opacity:0.5;}
	.st2{opacity:0.5;fill:none;stroke:#2F8FB0;stroke-width:0.5;stroke-miterlimit:10;}
	.st3{opacity:0.5;fill:none;stroke:#2F8FB0;stroke-miterlimit:10;}
	.st4{fill:none;stroke:#2F8FB0;stroke-width:0.5;stroke-miterlimit:10;}
	.st5{fill:none;stroke:#2F8FB0;stroke-miterlimit:10;}
	.st6{fill:#565659;}
	.st7{fill:#2F8FB0;}
	.st8{fill:none;stroke:#EB7A59;stroke-width:5;stroke-linejoin:bevel;stroke-miterlimit:10;}
	.st9{fill:none;stroke:#565659;stroke-width:5;stroke-linejoin:bevel;stroke-miterlimit:10;}
	.st10{fill:#EB7A59;}
	.st11{fill:none;stroke:#EB7A59;stroke-width:8;stroke-linejoin:bevel;stroke-miterlimit:10;}
	.st12{fill:none;stroke:#FFFFFF;stroke-width:8;stroke-linejoin:bevel;stroke-miterlimit:10;}
	.st13{fill:#565659;fill-opacity:0;}
	.st14{fill:none;stroke:#FFFFFF;stroke-width:3.5581;stroke-miterlimit:10;}
	.st15{fill:#50AD85;}
	.st16{fill:#FFFFFF;fill-opacity:0;}
	.st17{fill:#FFFFFF;}
	.st18{fill:none;stroke:#747276;stroke-width:3.5581;stroke-miterlimit:10;}
	.st19{fill:none;stroke:#FFFFFF;stroke-width:4;stroke-miterlimit:10;}
	.st20{fill:none;stroke:#FFFFFF;stroke-width:3;stroke-miterlimit:10;}
	.st21{fill:#A3649B;}
	.st22{fill:none;stroke:#FFFFFF;stroke-width:3.1417;stroke-miterlimit:10;}
	.st23{fill:none;stroke:#565659;stroke-width:3.1417;stroke-miterlimit:10;}
	.st24{fill:none;stroke:#747276;stroke-width:3.3698;stroke-miterlimit:10;}
	.st25{fill:#747276;}
	.st26{fill:none;stroke:#FFFFFF;stroke-width:2;stroke-miterlimit:10;}
	.st27{fill:none;stroke:#747276;stroke-width:2;stroke-miterlimit:10;}
	.st28{fill:none;stroke:#FFFFFF;stroke-width:3.309;stroke-miterlimit:10;}
	.st29{fill:none;stroke:#747276;stroke-width:3.309;stroke-miterlimit:10;}
	.st30{fill:none;stroke:#FFFFFF;stroke-width:3.3723;stroke-miterlimit:10;}
</style>
<g>
	<g>
		<g>
			<path class="st6" d="M106.155,113.089h1.782v2.125h-1.782v3.709c0,0.774,0.36,1.026,1.044,1.026c0.288,0,0.612-0.036,0.738-0.072
				v1.981c-0.216,0.09-0.648,0.216-1.351,0.216c-1.729,0-2.809-1.026-2.809-2.737v-4.123h-1.603v-2.125h0.45
				c0.937,0,1.368-0.612,1.368-1.405v-1.242h2.161V113.089z"/>
		</g>
		<g>
			<path class="st6" d="M125.242,116.852l2.179-0.324c0.504-0.072,0.666-0.324,0.666-0.63c0-0.63-0.485-1.152-1.494-1.152
				c-1.044,0-1.62,0.666-1.692,1.44l-2.125-0.45c0.145-1.386,1.423-2.917,3.8-2.917c2.809,0,3.853,1.584,3.853,3.367v4.357
				c0,0.468,0.055,1.098,0.108,1.404h-2.197c-0.054-0.234-0.09-0.72-0.09-1.062c-0.45,0.702-1.296,1.314-2.61,1.314
				c-1.891,0-3.043-1.278-3.043-2.665C122.596,117.951,123.766,117.068,125.242,116.852z M128.087,118.365v-0.396l-1.998,0.306
				c-0.612,0.09-1.099,0.432-1.099,1.116c0,0.522,0.378,1.026,1.152,1.026C127.152,120.417,128.087,119.931,128.087,118.365z"/>
		</g>
		<g>
			<path class="st6" d="M182.769,121.948h-2.395v-8.858h2.323v1.098c0.54-0.918,1.602-1.333,2.557-1.333
				c2.196,0,3.205,1.566,3.205,3.511v5.582h-2.396v-5.167c0-0.99-0.485-1.765-1.638-1.765c-1.045,0-1.657,0.81-1.657,1.836V121.948z
				"/>
			<path class="st6" d="M192.417,121.858c0.162,0.972,0.937,1.674,2.071,1.674c1.512,0,2.358-0.756,2.358-2.467v-0.648
				c-0.36,0.576-1.188,1.134-2.467,1.134c-2.358,0-4.123-1.819-4.123-4.303c0-2.341,1.692-4.321,4.123-4.321
				c1.404,0,2.215,0.612,2.521,1.206v-1.044h2.305v7.904c0,2.431-1.314,4.645-4.646,4.645c-2.431,0-4.051-1.512-4.303-3.205
				L192.417,121.858z M196.883,117.249c0-1.369-0.937-2.233-2.089-2.233c-1.188,0-2.125,0.864-2.125,2.233
				c0,1.386,0.883,2.25,2.125,2.25C196.018,119.499,196.883,118.617,196.883,117.249z"/>
		</g>
		<g>
			<path class="st6" d="M208.733,116.852l2.179-0.324c0.504-0.072,0.666-0.324,0.666-0.63c0-0.63-0.485-1.152-1.494-1.152
				c-1.044,0-1.62,0.666-1.692,1.44l-2.125-0.45c0.145-1.386,1.423-2.917,3.8-2.917c2.809,0,3.853,1.584,3.853,3.367v4.357
				c0,0.468,0.055,1.098,0.108,1.404h-2.197c-0.054-0.234-0.09-0.72-0.09-1.062c-0.45,0.702-1.296,1.314-2.61,1.314
				c-1.891,0-3.043-1.278-3.043-2.665C206.087,117.951,207.257,117.068,208.733,116.852z M211.578,118.365v-0.396l-1.998,0.306
				c-0.612,0.09-1.099,0.432-1.099,1.116c0,0.522,0.378,1.026,1.152,1.026C210.642,120.417,211.578,119.931,211.578,118.365z"/>
		</g>
		<g>
			<path class="st6" d="M263.351,113.089h1.782v2.125h-1.782v3.709c0,0.774,0.36,1.026,1.044,1.026c0.288,0,0.612-0.036,0.738-0.072
				v1.981c-0.216,0.09-0.648,0.216-1.351,0.216c-1.729,0-2.809-1.026-2.809-2.737v-4.123h-1.603v-2.125h0.45
				c0.937,0,1.368-0.612,1.368-1.405v-1.242h2.161V113.089z"/>
		</g>
		<g>
			<path class="st6" d="M274.847,116.852l2.179-0.324c0.504-0.072,0.666-0.324,0.666-0.63c0-0.63-0.485-1.152-1.494-1.152
				c-1.044,0-1.62,0.666-1.692,1.44l-2.125-0.45c0.145-1.386,1.423-2.917,3.8-2.917c2.809,0,3.853,1.584,3.853,3.367v4.357
				c0,0.468,0.055,1.098,0.108,1.404h-2.196c-0.055-0.234-0.091-0.72-0.091-1.062c-0.45,0.702-1.296,1.314-2.61,1.314
				c-1.891,0-3.043-1.278-3.043-2.665C272.2,117.951,273.37,117.068,274.847,116.852z M277.692,118.365v-0.396l-1.998,0.306
				c-0.612,0.09-1.099,0.432-1.099,1.116c0,0.522,0.378,1.026,1.152,1.026C276.756,120.417,277.692,119.931,277.692,118.365z"/>
		</g>
		<g>
			<path class="st6" d="M339.329,113.089l1.909,5.708l1.639-5.708h2.376l-2.772,8.858h-2.395l-2.071-6.05l-2.034,6.05h-2.431
				l-2.827-8.858h2.521l1.639,5.689l1.927-5.689H339.329z"/>
			<path class="st6" d="M349.138,121.948h-2.395v-13.036h2.395v4.916c0.576-0.684,1.549-0.972,2.395-0.972
				c2.251,0,3.295,1.566,3.295,3.511v5.582h-2.395v-5.167c0-0.99-0.486-1.765-1.639-1.765c-1.008,0-1.602,0.756-1.656,1.729V121.948
				z"/>
		</g>
		<g>
			<path class="st6" d="M364.326,119.409c-0.45,1.53-1.854,2.809-4.033,2.809c-2.431,0-4.573-1.747-4.573-4.735
				c0-2.827,2.089-4.664,4.357-4.664c2.736,0,4.375,1.747,4.375,4.592c0,0.342-0.036,0.702-0.036,0.738h-6.338
				c0.054,1.17,1.045,2.017,2.232,2.017c1.117,0,1.729-0.558,2.017-1.35L364.326,119.409z M362.094,116.51
				c-0.036-0.882-0.612-1.747-1.98-1.747c-1.243,0-1.927,0.936-1.981,1.747H362.094z"/>
		</g>
		<g>
			<path class="st6" d="M455.179,121.948h-2.395v-8.858h2.322v1.098c0.541-0.918,1.603-1.333,2.558-1.333
				c2.196,0,3.204,1.566,3.204,3.511v5.582h-2.395v-5.167c0-0.99-0.486-1.765-1.639-1.765c-1.044,0-1.656,0.81-1.656,1.836V121.948z
				"/>
		</g>
		<g>
			<path class="st6" d="M479.884,120.994c-0.486,0.828-1.513,1.188-2.448,1.188c-2.143,0-3.367-1.566-3.367-3.493v-5.6h2.395v5.113
				c0,0.99,0.504,1.783,1.62,1.783c1.062,0,1.675-0.72,1.675-1.747v-5.149h2.395v7.256c0,0.684,0.055,1.296,0.09,1.603h-2.286
				C479.92,121.768,479.884,121.354,479.884,120.994z"/>
		</g>
		<g>
			<path class="st6" d="M506.374,116.852l2.179-0.324c0.504-0.072,0.666-0.324,0.666-0.63c0-0.63-0.485-1.152-1.494-1.152
				c-1.044,0-1.62,0.666-1.692,1.44l-2.125-0.45c0.145-1.386,1.423-2.917,3.8-2.917c2.809,0,3.853,1.584,3.853,3.367v4.357
				c0,0.468,0.055,1.098,0.108,1.404h-2.197c-0.054-0.234-0.09-0.72-0.09-1.062c-0.45,0.702-1.296,1.314-2.61,1.314
				c-1.891,0-3.043-1.278-3.043-2.665C503.727,117.951,504.897,117.068,506.374,116.852z M509.219,118.365v-0.396l-1.998,0.306
				c-0.612,0.09-1.099,0.432-1.099,1.116c0,0.522,0.378,1.026,1.152,1.026C508.283,120.417,509.219,119.931,509.219,118.365z"/>
		</g>
	</g>
	<g>
		<g>
			<polygon class="st10" points="528.638,153.581 519.193,153.575 517.395,152.811 508.677,143.773 501.357,143.773 
				492.639,152.816 490.839,153.581 282.948,153.575 281.082,152.737 273.504,144.223 265.917,152.744 264.05,153.581 
				216.804,153.581 214.932,152.737 207.359,144.174 199.776,152.738 197.905,153.581 131.76,153.581 129.942,152.798 
				122.305,144.712 114.678,152.797 112.86,153.581 93.959,153.581 93.959,148.581 111.781,148.581 120.486,139.354 
				124.122,139.354 132.837,148.581 196.779,148.581 205.488,138.745 209.232,138.746 217.931,148.581 262.928,148.581 
				271.637,138.801 275.372,138.801 284.072,148.576 386.894,148.581 405.793,148.562 489.777,148.581 498.494,139.538 
				500.294,138.773 509.74,138.773 511.539,139.537 520.257,148.575 528.641,148.581 			"/>
		</g>
		<g>
			<polygon class="st6" points="528.639,171.281 367.988,171.256 366.117,170.407 358.551,161.803 350.973,170.431 349.094,171.281 
				93.959,171.281 93.959,166.281 347.963,166.281 356.671,156.366 360.427,156.365 369.128,166.259 528.639,166.281 			"/>
		</g>
		<g>
			<rect x="93.959" y="183.98" class="st10" width="434.68" height="5"/>
		</g>
		<g>
			<rect x="93.959" y="201.68" class="st6" width="434.68" height="5"/>
		</g>
		<g>
			<polygon class="st10" points="528.639,224.38 481.389,224.362 479.518,223.514 471.942,214.913 464.373,223.53 462.494,224.38 
				93.959,224.38 93.959,219.38 461.363,219.38 470.061,209.478 473.815,209.475 482.526,219.364 528.639,219.38 			"/>
		</g>
		<g>
			<polygon class="st6" points="528.639,242.08 131.601,242.075 122.304,241.483 112.86,242.08 93.959,242.08 93.959,237.08 
				112.781,237.08 122.463,236.483 131.839,237.08 528.639,237.08 			"/>
		</g>
		<g>
			<rect x="93.959" y="254.78" class="st10" width="434.68" height="5"/>
		</g>
		<g>
			<rect x="93.959" y="272.479" class="st6" width="434.68" height="5"/>
		</g>
		<g>
			<rect x="93.959" y="290.179" class="st10" width="434.68" height="5"/>
		</g>
		<g>
			<rect x="93.959" y="307.879" class="st6" width="434.68" height="5"/>
		</g>
		<g>
			<rect x="93.959" y="325.579" class="st10" width="434.68" height="5"/>
		</g>
		<g>
			<polygon class="st6" points="528.639,348.279 122.304,348.279 112.833,348.18 103.43,348.279 93.959,348.279 93.959,343.279 
				103.405,343.279 112.834,343.18 122.33,343.279 528.639,343.279 			"/>
		</g>
		<g>
			<rect x="93.959" y="360.978" class="st10" width="434.68" height="5"/>
		</g>
		<g>
			<polygon class="st6" points="528.639,383.678 471.939,383.678 470.066,382.833 462.493,374.266 454.911,382.834 453.039,383.678 
				93.959,383.678 93.959,378.678 451.913,378.678 460.622,368.836 464.367,368.837 473.066,378.678 528.639,378.678 			"/>
		</g>
		<g>
			<polygon class="st10" points="528.639,401.377 122.304,401.377 112.86,401.17 103.46,401.376 93.959,401.377 93.959,396.377 
				103.405,396.377 112.915,396.17 122.36,396.378 528.639,396.377 			"/>
		</g>
		<g>
			<rect x="93.959" y="414.078" class="st6" width="434.68" height="5"/>
		</g>
		<g>
			<polygon class="st10" points="528.639,436.778 273.505,436.778 271.674,435.981 264.051,427.786 256.436,435.98 254.604,436.778 
				122.304,436.778 120.462,435.967 112.859,427.672 105.247,435.968 103.405,436.778 93.959,436.778 93.959,431.778 
				102.305,431.778 111.017,422.283 114.702,422.284 123.405,431.778 253.514,431.778 262.218,422.412 265.88,422.411 
				274.594,431.778 528.639,431.778 			"/>
		</g>
		<g>
			<rect x="93.959" y="449.477" class="st6" width="434.68" height="5"/>
		</g>
		<g>
			<polygon class="st10" points="528.639,472.177 207.36,472.177 205.484,471.331 197.898,462.722 190.329,471.246 188.484,472.085 
				179.029,472.177 93.959,472.177 93.959,467.177 179.005,467.177 187.326,467.096 196.035,457.289 199.78,457.295 
				208.489,467.177 528.639,467.177 			"/>
		</g>
		<polygon class="st6" points="528.639,489.876 358.55,489.876 356.671,489.026 349.095,480.401 341.529,489.025 339.649,489.876 
			93.959,489.876 93.959,484.876 338.517,484.876 347.215,474.963 350.973,474.962 359.681,484.876 528.639,484.876 		"/>
	</g>
	<g>
		<path class="st10" d="M73.416,150.297l1.107-0.165c0.256-0.037,0.339-0.165,0.339-0.32c0-0.32-0.247-0.586-0.76-0.586
			c-0.531,0-0.824,0.339-0.861,0.732l-1.08-0.229c0.073-0.705,0.724-1.483,1.932-1.483c1.429,0,1.96,0.806,1.96,1.712v2.216
			c0,0.238,0.027,0.558,0.055,0.714H74.99c-0.027-0.119-0.046-0.366-0.046-0.54c-0.229,0.357-0.659,0.668-1.327,0.668
			c-0.962,0-1.548-0.65-1.548-1.354C72.069,150.856,72.665,150.407,73.416,150.297z M74.862,151.066v-0.202l-1.017,0.156
			c-0.312,0.046-0.559,0.22-0.559,0.568c0,0.265,0.192,0.521,0.586,0.521C74.385,152.11,74.862,151.863,74.862,151.066z"/>
		<path class="st10" d="M76.382,169.397c-0.229,0.778-0.943,1.428-2.051,1.428c-1.236,0-2.325-0.888-2.325-2.408
			c0-1.438,1.062-2.371,2.215-2.371c1.393,0,2.226,0.888,2.226,2.334c0,0.174-0.019,0.357-0.019,0.375h-3.223
			c0.027,0.595,0.531,1.025,1.135,1.025c0.568,0,0.879-0.284,1.025-0.687L76.382,169.397z M75.246,167.923
			c-0.018-0.449-0.311-0.888-1.007-0.888c-0.632,0-0.979,0.476-1.007,0.888H75.246z"/>
		<path class="st10" d="M72.948,181.75c0.422,0,0.751,0.339,0.751,0.76c0,0.403-0.329,0.742-0.751,0.742
			c-0.411,0-0.75-0.339-0.75-0.742C72.198,182.088,72.537,181.75,72.948,181.75z M72.344,188.488v-4.504h1.218v4.504H72.344z"/>
		<path class="st10" d="M76.729,204.036c0,1.383-1.016,2.39-2.362,2.39c-1.346,0-2.361-1.007-2.361-2.39
			c0-1.392,1.016-2.389,2.361-2.389C75.714,201.646,76.729,202.644,76.729,204.036z M75.511,204.036
			c0-0.851-0.549-1.281-1.145-1.281c-0.595,0-1.144,0.43-1.144,1.281c0,0.843,0.549,1.282,1.144,1.282
			C74.963,205.318,75.511,204.887,75.511,204.036z"/>
		<path class="st10" d="M75.256,223.603c-0.247,0.421-0.77,0.604-1.245,0.604c-1.09,0-1.712-0.796-1.712-1.776v-2.847h1.218v2.6
			c0,0.503,0.256,0.906,0.823,0.906c0.541,0,0.852-0.366,0.852-0.888v-2.618h1.218v3.689c0,0.348,0.027,0.659,0.046,0.815h-1.163
			C75.274,223.997,75.256,223.786,75.256,223.603z"/>
		<path class="st10" d="M72.012,240.494c0-1.115,0.888-1.446,1.875-1.537c0.868-0.084,1.21-0.127,1.21-0.448v-0.02
			c0-0.41-0.271-0.647-0.741-0.647c-0.497,0-0.793,0.244-0.888,0.575l-1.28-0.104c0.191-0.91,0.979-1.482,2.174-1.482
			c1.112,0,2.119,0.5,2.119,1.69v3.367h-1.312v-0.692H75.13c-0.244,0.465-0.722,0.787-1.46,0.787
			C72.718,241.982,72.012,241.482,72.012,240.494z M75.997,235.983h-3.165v-0.751h3.165V235.983z M75.107,240.104v-0.53
			c-0.166,0.11-0.66,0.182-0.963,0.224c-0.487,0.068-0.809,0.26-0.809,0.65c0,0.38,0.306,0.579,0.731,0.579
			C74.675,241.027,75.107,240.627,75.107,240.104z"/>
		<path class="st10" d="M72.045,257.215c0-1.541,0.953-2.584,2.422-2.584c1.319,0,2.347,0.838,2.347,2.535v0.38h-3.399v0.003
			c0,0.744,0.438,1.203,1.131,1.203c0.461,0,0.818-0.198,0.959-0.579l1.28,0.084c-0.195,0.926-1.027,1.528-2.263,1.528
			C72.984,259.786,72.045,258.797,72.045,257.215z M76.016,253.783h-3.165v-0.751h3.165V253.783z M75.51,256.688
			c-0.003-0.595-0.419-1.023-1.021-1.023c-0.614,0-1.046,0.455-1.075,1.023H75.51z"/>
		<path class="st10" d="M74.525,271.583h-3.166v-0.751h3.166V271.583z M72.247,272.496h1.385v4.992h-1.385V272.496z"/>
		<path class="st10" d="M72.045,292.811c0-1.547,0.943-2.581,2.457-2.581c1.515,0,2.458,1.034,2.458,2.581
			c0,1.537-0.943,2.574-2.458,2.574C72.988,295.385,72.045,294.348,72.045,292.811z M76.085,289.382H72.92v-0.751h3.165V289.382z
			 M75.552,292.801c0-0.871-0.357-1.515-1.043-1.515c-0.698,0-1.056,0.644-1.056,1.515s0.357,1.512,1.056,1.512
			C75.194,294.313,75.552,293.672,75.552,292.801z"/>
		<path class="st10" d="M75.448,308.096h1.385v4.992h-1.329v-0.907h-0.053c-0.224,0.586-0.764,0.973-1.515,0.973
			c-1.004,0-1.687-0.712-1.689-1.879v-3.179h1.385v2.932c0.003,0.588,0.341,0.955,0.864,0.955c0.497,0,0.955-0.351,0.952-1.021
			V308.096z M76.128,307.183h-3.166v-0.751h3.166V307.183z"/>
		<path class="st10" d="M73.562,330.888h-1.218v-6.628h1.218v2.499c0.293-0.348,0.787-0.494,1.217-0.494
			c1.145,0,1.676,0.796,1.676,1.785v2.838h-1.218v-2.628c0-0.503-0.247-0.896-0.833-0.896c-0.513,0-0.814,0.384-0.842,0.879V330.888
			z"/>
		<path class="st10" d="M74.908,346.079l1.84,2.609h-1.492l-1.19-1.721l-0.503,0.53v1.19h-1.218v-6.629h1.218v3.8l1.556-1.675h1.593
			L74.908,346.079z"/>
		<path class="st10" d="M72.344,366.488v-4.505h1.162v0.55c0.247-0.439,0.824-0.678,1.318-0.678c0.613,0,1.108,0.266,1.337,0.751
			c0.357-0.549,0.833-0.751,1.428-0.751c0.834,0,1.63,0.504,1.63,1.712v2.921h-1.181v-2.673c0-0.485-0.238-0.852-0.797-0.852
			c-0.521,0-0.833,0.402-0.833,0.888v2.637h-1.208v-2.673c0-0.485-0.248-0.852-0.797-0.852c-0.531,0-0.842,0.394-0.842,0.888v2.637
			H72.344z"/>
		<path class="st10" d="M73.562,384.288h-1.218v-4.504h1.181v0.558c0.274-0.467,0.814-0.677,1.3-0.677
			c1.117,0,1.63,0.796,1.63,1.785v2.838h-1.218v-2.628c0-0.503-0.247-0.896-0.833-0.896c-0.531,0-0.842,0.411-0.842,0.934V384.288z"
			/>
		<path class="st10" d="M72.344,403.828v-6.243h1.181v0.549c0.201-0.348,0.705-0.65,1.383-0.65c1.318,0,2.078,1.008,2.078,2.344
			c0,1.364-0.852,2.371-2.124,2.371c-0.623,0-1.081-0.247-1.3-0.549v2.179H72.344z M74.67,398.573c-0.623,0-1.126,0.467-1.126,1.264
			c0,0.796,0.503,1.272,1.126,1.272c0.622,0,1.117-0.467,1.117-1.272C75.787,399.04,75.292,398.573,74.67,398.573z"/>
		<path class="st10" d="M75.091,416.592c-0.138-0.027-0.256-0.037-0.366-0.037c-0.622,0-1.162,0.303-1.162,1.273v2.06h-1.218v-4.505
			h1.181v0.669c0.274-0.595,0.897-0.705,1.281-0.705c0.102,0,0.192,0.009,0.284,0.019V416.592z"/>
		<path class="st10" d="M73.845,433.184h0.906v1.08h-0.906v1.886c0,0.394,0.184,0.521,0.531,0.521c0.146,0,0.312-0.018,0.375-0.036
			v1.007c-0.109,0.046-0.329,0.11-0.687,0.11c-0.879,0-1.428-0.522-1.428-1.392v-2.097h-0.815v-1.08h0.229
			c0.476,0,0.695-0.312,0.695-0.715v-0.632h1.099V433.184z"/>
		<path class="st10" d="M76.18,450.983l0.97,2.902l0.834-2.902h1.208l-1.41,4.505h-1.218l-1.053-3.076l-1.034,3.076h-1.236
			l-1.437-4.505h1.281l0.833,2.894l0.979-2.894H76.18z"/>
		<path class="st10" d="M73.562,473.288h-1.218v-4.504h1.181v0.558c0.274-0.467,0.814-0.677,1.3-0.677
			c1.117,0,1.63,0.796,1.63,1.785v2.838h-1.218v-2.628c0-0.503-0.247-0.896-0.833-0.896c-0.531,0-0.842,0.411-0.842,0.934V473.288z"
			/>
		<path class="st10" d="M78.47,473.242c0.082,0.494,0.476,0.852,1.053,0.852c0.769,0,1.199-0.385,1.199-1.254v-0.33
			c-0.184,0.293-0.604,0.577-1.255,0.577c-1.199,0-2.097-0.925-2.097-2.188c0-1.19,0.861-2.197,2.097-2.197
			c0.715,0,1.126,0.312,1.282,0.613v-0.53h1.172v4.019c0,1.236-0.668,2.362-2.362,2.362c-1.235,0-2.06-0.77-2.188-1.63
			L78.47,473.242z M80.74,470.898c0-0.695-0.476-1.135-1.062-1.135c-0.604,0-1.08,0.439-1.08,1.135c0,0.705,0.448,1.145,1.08,1.145
			C80.301,472.042,80.74,471.594,80.74,470.898z"/>
		<path class="st10" d="M76.18,486.584l0.97,2.901l0.834-2.901h1.208l-1.41,4.504h-1.218l-1.053-3.076l-1.034,3.076h-1.236
			l-1.437-4.504h1.281l0.833,2.893l0.979-2.893H76.18z"/>
		<path class="st10" d="M81.17,491.088h-1.217v-6.629h1.217v2.5c0.293-0.348,0.788-0.494,1.218-0.494
			c1.145,0,1.676,0.796,1.676,1.785v2.838h-1.218v-2.628c0-0.503-0.247-0.896-0.833-0.896c-0.513,0-0.814,0.384-0.843,0.879V491.088
			z"/>
	</g>
</g>
</svg>
