<?xml version="1.0" encoding="utf-8"?>
<!-- Generator: Adobe Illustrator 21.1.0, SVG Export Plug-In . SVG Version: 6.00 Build 0)  -->
<svg version="1.1" id="Layer_1" xmlns="http://www.w3.org/2000/svg" xmlns:xlink="http://www.w3.org/1999/xlink" x="0px" y="0px"
	 viewBox="0 0 600 600" style="enable-background:new 0 0 600 600;" xml:space="preserve">
<style type="text/css">
	.st0{fill:#E5DECD;}
	.st1{opacity:0.5;}
	.st2{opacity:0.5;fill:none;stroke:#2F8FB0;stroke-width:0.5;stroke-miterlimit:10;}
	.st3{opacity:0.5;fill:none;stroke:#2F8FB0;stroke-miterlimit:10;}
	.st4{fill:none;stroke:#2F8FB0;stroke-width:0.5;stroke-miterlimit:10;}
	.st5{fill:none;stroke:#2F8FB0;stroke-miterlimit:10;}
	.st6{fill:#565659;}
	.st7{fill:#2F8FB0;}
	.st8{fill:none;stroke:#EB7A59;stroke-width:5;stroke-linejoin:bevel;stroke-miterlimit:10;}
	.st9{fill:none;stroke:#565659;stroke-width:5;stroke-linejoin:bevel;stroke-miterlimit:10;}
	.st10{fill:#EB7A59;}
	.st11{fill:none;stroke:#EB7A59;stroke-width:8;stroke-linejoin:bevel;stroke-miterlimit:10;}
	.st12{fill:none;stroke:#FFFFFF;stroke-width:8;stroke-linejoin:bevel;stroke-miterlimit:10;}
	.st13{fill:#565659;fill-opacity:0;}
	.st14{fill:none;stroke:#FFFFFF;stroke-width:3.5581;stroke-miterlimit:10;}
	.st15{fill:#50AD85;}
	.st16{fill:#FFFFFF;fill-opacity:0;}
	.st17{fill:#FFFFFF;}
	.st18{fill:none;stroke:#747276;stroke-width:3.5581;stroke-miterlimit:10;}
	.st19{fill:none;stroke:#FFFFFF;stroke-width:4;stroke-miterlimit:10;}
	.st20{fill:none;stroke:#FFFFFF;stroke-width:3;stroke-miterlimit:10;}
	.st21{fill:#A3649B;}
	.st22{fill:none;stroke:#FFFFFF;stroke-width:3.1417;stroke-miterlimit:10;}
	.st23{fill:none;stroke:#565659;stroke-width:3.1417;stroke-miterlimit:10;}
	.st24{fill:none;stroke:#747276;stroke-width:3.3698;stroke-miterlimit:10;}
	.st25{fill:#747276;}
	.st26{fill:none;stroke:#FFFFFF;stroke-width:2;stroke-miterlimit:10;}
	.st27{fill:none;stroke:#747276;stroke-width:2;stroke-miterlimit:10;}
	.st28{fill:none;stroke:#FFFFFF;stroke-width:3.309;stroke-miterlimit:10;}
	.st29{fill:none;stroke:#747276;stroke-width:3.309;stroke-miterlimit:10;}
	.st30{fill:none;stroke:#FFFFFF;stroke-width:3.3723;stroke-miterlimit:10;}
</style>
<g>
	<g>
		<g>
			<circle class="st13" cx="137.042" cy="120.633" r="5.602"/>
			<circle class="st13" cx="197.424" cy="120.633" r="5.602"/>
			<circle class="st6" cx="257.806" cy="120.633" r="5.602"/>
			<circle class="st6" cx="318.189" cy="120.633" r="5.602"/>
			<circle class="st13" cx="378.571" cy="120.633" r="5.602"/>
			<circle class="st13" cx="438.953" cy="120.633" r="5.602"/>
		</g>
		<g>
			<circle class="st13" cx="137.042" cy="180.023" r="5.602"/>
			<circle class="st6" cx="197.424" cy="180.023" r="5.602"/>
			<circle class="st6" cx="257.806" cy="180.023" r="5.602"/>
			<circle class="st6" cx="318.189" cy="180.023" r="5.602"/>
			<circle class="st6" cx="378.571" cy="180.023" r="5.602"/>
			<circle class="st13" cx="438.953" cy="180.023" r="5.602"/>
		</g>
		<g>
			<circle class="st6" cx="137.042" cy="239.412" r="5.602"/>
			<circle class="st6" cx="197.424" cy="239.412" r="5.602"/>
			<circle class="st6" cx="257.806" cy="239.412" r="5.602"/>
			<circle class="st6" cx="318.189" cy="239.412" r="5.602"/>
			<circle class="st6" cx="378.571" cy="239.412" r="5.602"/>
			<circle class="st6" cx="438.953" cy="239.412" r="5.602"/>
		</g>
		<g>
			<circle class="st13" cx="167.602" cy="151.17" r="5.602"/>
			<circle class="st13" cx="111.059" cy="151.17" r="5.602"/>
			<circle class="st6" cx="227.984" cy="151.17" r="5.602"/>
			<circle class="st6" cx="288.366" cy="151.17" r="5.602"/>
			<circle class="st6" cx="348.748" cy="151.17" r="5.602"/>
			<circle class="st13" cx="409.131" cy="151.17" r="5.602"/>
			<circle class="st13" cx="469.513" cy="151.17" r="5.602"/>
		</g>
		<g>
			<circle class="st6" cx="167.602" cy="212.607" r="5.602"/>
			<circle class="st13" cx="111.059" cy="212.607" r="5.602"/>
			<circle class="st6" cx="227.984" cy="212.607" r="5.602"/>
			<circle class="st6" cx="288.366" cy="212.607" r="5.602"/>
			<circle class="st6" cx="348.748" cy="212.607" r="5.602"/>
			<circle class="st6" cx="409.131" cy="212.607" r="5.602"/>
			<circle class="st13" cx="469.513" cy="212.607" r="5.602"/>
		</g>
		<g>
			<circle class="st6" cx="167.602" cy="274.045" r="5.602"/>
			<circle class="st6" cx="111.059" cy="274.045" r="5.602"/>
			<circle class="st6" cx="227.984" cy="274.045" r="5.602"/>
			<circle class="st6" cx="288.366" cy="274.045" r="5.602"/>
			<circle class="st6" cx="348.748" cy="274.045" r="5.602"/>
			<circle class="st6" cx="409.131" cy="274.045" r="5.602"/>
			<circle class="st6" cx="469.513" cy="274.045" r="5.602"/>
		</g>
		<g>
			<circle class="st13" cx="167.602" cy="90.097" r="5.602"/>
			<circle class="st13" cx="111.059" cy="90.097" r="5.602"/>
			<circle class="st13" cx="227.984" cy="90.097" r="5.602"/>
			<circle class="st6" cx="288.366" cy="90.097" r="5.602"/>
			<circle class="st13" cx="348.748" cy="90.097" r="5.602"/>
			<circle class="st13" cx="409.131" cy="90.097" r="5.602"/>
			<circle class="st13" cx="469.513" cy="90.097" r="5.602"/>
		</g>
		<line class="st14" x1="170.332" y1="297.56" x2="170.332" y2="515.505"/>
		<line class="st14" x1="110.822" y1="297.56" x2="110.822" y2="515.505"/>
		<line class="st14" x1="229.842" y1="297.56" x2="229.842" y2="515.505"/>
		<line class="st14" x1="289.353" y1="297.56" x2="289.353" y2="515.505"/>
		<line class="st14" x1="348.863" y1="297.56" x2="348.863" y2="515.505"/>
		<line class="st14" x1="408.373" y1="297.56" x2="408.373" y2="515.505"/>
		<line class="st14" x1="469.513" y1="297.56" x2="469.513" y2="515.505"/>
	</g>
	<g>
		<circle class="st15" cx="243.875" cy="503.437" r="8.51"/>
		<circle class="st15" cx="260.091" cy="494.167" r="8.51"/>
		<circle class="st15" cx="243.875" cy="484.342" r="8.51"/>
		<circle class="st15" cx="260.091" cy="475.072" r="8.51"/>
		<circle class="st15" cx="243.875" cy="465.247" r="8.51"/>
		<circle class="st15" cx="260.091" cy="455.976" r="8.51"/>
		<circle class="st15" cx="243.875" cy="446.151" r="8.51"/>
		<circle class="st15" cx="260.091" cy="436.881" r="8.51"/>
		<circle class="st15" cx="243.875" cy="427.056" r="8.51"/>
		<circle class="st15" cx="260.091" cy="417.786" r="8.51"/>
		<circle class="st15" cx="243.875" cy="407.961" r="8.51"/>
		<circle class="st15" cx="260.091" cy="398.69" r="8.51"/>
		<circle class="st15" cx="243.875" cy="388.865" r="8.51"/>
		<circle class="st15" cx="260.091" cy="379.595" r="8.51"/>
		<circle class="st15" cx="243.875" cy="369.77" r="8.51"/>
		<circle class="st15" cx="276.307" cy="503.437" r="8.51"/>
		<circle class="st15" cx="276.307" cy="484.342" r="8.51"/>
		<circle class="st15" cx="276.307" cy="465.247" r="8.51"/>
		<circle class="st15" cx="276.307" cy="446.151" r="8.51"/>
		<circle class="st15" cx="276.307" cy="427.056" r="8.51"/>
		<circle class="st15" cx="276.307" cy="407.961" r="8.51"/>
		<circle class="st15" cx="276.307" cy="388.865" r="8.51"/>
		<circle class="st15" cx="276.307" cy="369.77" r="8.51"/>
		<circle class="st15" cx="260.091" cy="360.5" r="8.51"/>
		<circle class="st15" cx="243.875" cy="351.433" r="8.51"/>
		<circle class="st15" cx="276.307" cy="351.433" r="8.51"/>
		<circle class="st15" cx="260.091" cy="342.163" r="8.51"/>
		<circle class="st15" cx="243.875" cy="333.097" r="8.51"/>
		<circle class="st15" cx="276.307" cy="333.097" r="8.51"/>
		<circle class="st15" cx="260.091" cy="323.827" r="8.51"/>
		<circle class="st15" cx="276.307" cy="314.76" r="8.51"/>
	</g>
	<g>
		<circle class="st15" cx="184.442" cy="503.437" r="8.51"/>
		<circle class="st15" cx="200.657" cy="494.167" r="8.51"/>
		<circle class="st15" cx="184.442" cy="484.342" r="8.51"/>
		<circle class="st15" cx="200.657" cy="475.072" r="8.51"/>
		<circle class="st15" cx="184.442" cy="465.247" r="8.51"/>
		<circle class="st15" cx="200.657" cy="455.976" r="8.51"/>
		<circle class="st15" cx="184.442" cy="446.151" r="8.51"/>
		<circle class="st15" cx="200.657" cy="436.881" r="8.51"/>
		<circle class="st15" cx="184.442" cy="427.056" r="8.51"/>
		<circle class="st15" cx="200.657" cy="417.786" r="8.51"/>
		<circle class="st15" cx="184.442" cy="407.961" r="8.51"/>
		<circle class="st15" cx="200.657" cy="398.69" r="8.51"/>
		<circle class="st15" cx="216.873" cy="503.437" r="8.51"/>
		<circle class="st15" cx="216.873" cy="484.342" r="8.51"/>
		<circle class="st15" cx="216.873" cy="465.247" r="8.51"/>
		<circle class="st15" cx="216.873" cy="446.151" r="8.51"/>
		<circle class="st15" cx="216.873" cy="427.056" r="8.51"/>
		<circle class="st15" cx="216.873" cy="407.961" r="8.51"/>
	</g>
	<g>
		<circle class="st15" cx="125.008" cy="503.437" r="8.51"/>
		<circle class="st15" cx="141.224" cy="494.167" r="8.51"/>
		<circle class="st15" cx="125.008" cy="484.342" r="8.51"/>
		<circle class="st15" cx="141.224" cy="475.072" r="8.51"/>
		<circle class="st15" cx="157.44" cy="503.437" r="8.51"/>
		<circle class="st15" cx="157.44" cy="484.342" r="8.51"/>
	</g>
	<g>
		<circle class="st15" cx="96.947" cy="503.437" r="8.51"/>
	</g>
	<g>
		<circle class="st15" cx="302.862" cy="503.437" r="8.51"/>
		<circle class="st15" cx="319.078" cy="494.167" r="8.51"/>
		<circle class="st15" cx="302.862" cy="484.342" r="8.51"/>
		<circle class="st15" cx="319.078" cy="475.072" r="8.51"/>
		<circle class="st15" cx="302.862" cy="465.247" r="8.51"/>
		<circle class="st15" cx="319.078" cy="455.976" r="8.51"/>
		<circle class="st15" cx="302.862" cy="446.151" r="8.51"/>
		<circle class="st15" cx="319.078" cy="436.881" r="8.51"/>
		<circle class="st15" cx="302.862" cy="427.056" r="8.51"/>
		<circle class="st15" cx="319.078" cy="417.786" r="8.51"/>
		<circle class="st15" cx="302.862" cy="407.961" r="8.51"/>
		<circle class="st15" cx="319.078" cy="398.69" r="8.51"/>
		<circle class="st15" cx="302.862" cy="388.865" r="8.51"/>
		<circle class="st15" cx="319.078" cy="379.595" r="8.51"/>
		<circle class="st15" cx="302.862" cy="369.77" r="8.51"/>
		<circle class="st15" cx="335.294" cy="503.437" r="8.51"/>
		<circle class="st15" cx="335.294" cy="484.342" r="8.51"/>
		<circle class="st15" cx="335.294" cy="465.247" r="8.51"/>
		<circle class="st15" cx="335.294" cy="446.151" r="8.51"/>
		<circle class="st15" cx="335.294" cy="427.056" r="8.51"/>
		<circle class="st15" cx="335.294" cy="407.961" r="8.51"/>
		<circle class="st15" cx="335.294" cy="388.865" r="8.51"/>
		<circle class="st15" cx="335.294" cy="369.77" r="8.51"/>
		<circle class="st15" cx="319.078" cy="360.5" r="8.51"/>
		<circle class="st15" cx="302.862" cy="351.433" r="8.51"/>
		<circle class="st15" cx="335.294" cy="351.433" r="8.51"/>
		<circle class="st15" cx="319.078" cy="342.163" r="8.51"/>
		<circle class="st15" cx="302.862" cy="333.097" r="8.51"/>
		<circle class="st15" cx="335.294" cy="333.097" r="8.51"/>
		<circle class="st15" cx="302.862" cy="314.76" r="8.51"/>
	</g>
	<g>
		<circle class="st15" cx="362.355" cy="503.437" r="8.51"/>
		<circle class="st15" cx="378.571" cy="494.167" r="8.51"/>
		<circle class="st15" cx="362.355" cy="484.342" r="8.51"/>
		<circle class="st15" cx="378.571" cy="475.072" r="8.51"/>
		<circle class="st15" cx="362.355" cy="465.247" r="8.51"/>
		<circle class="st15" cx="378.571" cy="455.976" r="8.51"/>
		<circle class="st15" cx="362.355" cy="446.151" r="8.51"/>
		<circle class="st15" cx="378.571" cy="436.881" r="8.51"/>
		<circle class="st15" cx="362.355" cy="427.056" r="8.51"/>
		<circle class="st15" cx="394.787" cy="503.437" r="8.51"/>
		<circle class="st15" cx="394.787" cy="484.342" r="8.51"/>
		<circle class="st15" cx="394.787" cy="465.247" r="8.51"/>
		<circle class="st15" cx="394.787" cy="446.151" r="8.51"/>
	</g>
	<g>
		<circle class="st15" cx="422.737" cy="503.437" r="8.51"/>
		<circle class="st15" cx="438.953" cy="494.167" r="8.51"/>
		<circle class="st15" cx="422.737" cy="484.342" r="8.51"/>
		<circle class="st15" cx="455.169" cy="503.437" r="8.51"/>
		<circle class="st15" cx="455.169" cy="484.342" r="8.51"/>
	</g>
	<g>
		<circle class="st15" cx="483.625" cy="503.437" r="8.51"/>
		<circle class="st15" cx="503.053" cy="503.437" r="8.51"/>
	</g>
</g>
</svg>
