<?xml version="1.0" encoding="utf-8"?>
<!-- Generator: Adobe Illustrator 21.1.0, SVG Export Plug-In . SVG Version: 6.00 Build 0)  -->
<svg version="1.1" id="Layer_1" xmlns="http://www.w3.org/2000/svg" xmlns:xlink="http://www.w3.org/1999/xlink" x="0px" y="0px"
	 viewBox="0 0 600 600" style="enable-background:new 0 0 600 600;" xml:space="preserve">
<style type="text/css">
	.st0{fill:#E5DECD;}
	.st1{opacity:0.5;}
	.st2{opacity:0.5;fill:none;stroke:#2F8FB0;stroke-width:0.5;stroke-miterlimit:10;}
	.st3{opacity:0.5;fill:none;stroke:#2F8FB0;stroke-miterlimit:10;}
	.st4{fill:none;stroke:#2F8FB0;stroke-width:0.5;stroke-miterlimit:10;}
	.st5{fill:none;stroke:#2F8FB0;stroke-miterlimit:10;}
	.st6{fill:#565659;}
	.st7{fill:#2F8FB0;}
	.st8{fill:none;stroke:#EB7A59;stroke-width:5;stroke-linejoin:bevel;stroke-miterlimit:10;}
	.st9{fill:none;stroke:#565659;stroke-width:5;stroke-linejoin:bevel;stroke-miterlimit:10;}
	.st10{fill:#EB7A59;}
	.st11{fill:none;stroke:#EB7A59;stroke-width:8;stroke-linejoin:bevel;stroke-miterlimit:10;}
	.st12{fill:none;stroke:#FFFFFF;stroke-width:8;stroke-linejoin:bevel;stroke-miterlimit:10;}
	.st13{fill:#565659;fill-opacity:0;}
	.st14{fill:none;stroke:#FFFFFF;stroke-width:3.5581;stroke-miterlimit:10;}
	.st15{fill:#50AD85;}
	.st16{fill:#FFFFFF;fill-opacity:0;}
	.st17{fill:#FFFFFF;}
	.st18{fill:none;stroke:#747276;stroke-width:3.5581;stroke-miterlimit:10;}
	.st19{fill:none;stroke:#FFFFFF;stroke-width:4;stroke-miterlimit:10;}
	.st20{fill:none;stroke:#FFFFFF;stroke-width:3;stroke-miterlimit:10;}
	.st21{fill:#A3649B;}
	.st22{fill:none;stroke:#FFFFFF;stroke-width:3.1417;stroke-miterlimit:10;}
	.st23{fill:none;stroke:#565659;stroke-width:3.1417;stroke-miterlimit:10;}
	.st24{fill:none;stroke:#747276;stroke-width:3.3698;stroke-miterlimit:10;}
	.st25{fill:#747276;}
	.st26{fill:none;stroke:#FFFFFF;stroke-width:2;stroke-miterlimit:10;}
	.st27{fill:none;stroke:#747276;stroke-width:2;stroke-miterlimit:10;}
	.st28{fill:none;stroke:#FFFFFF;stroke-width:3.309;stroke-miterlimit:10;}
	.st29{fill:none;stroke:#747276;stroke-width:3.309;stroke-miterlimit:10;}
	.st30{fill:none;stroke:#FFFFFF;stroke-width:3.3723;stroke-miterlimit:10;}
</style>
<g>
	<g>
		<circle class="st16" cx="136.551" cy="120.633" r="5.602"/>
		<circle class="st16" cx="196.933" cy="120.633" r="5.602"/>
		<circle class="st17" cx="257.315" cy="120.633" r="5.602"/>
		<circle class="st17" cx="317.698" cy="120.633" r="5.602"/>
		<circle class="st16" cx="378.08" cy="120.633" r="5.602"/>
		<circle class="st16" cx="438.462" cy="120.633" r="5.602"/>
	</g>
	<g>
		<circle class="st16" cx="136.551" cy="180.023" r="5.602"/>
		<circle class="st17" cx="196.933" cy="180.023" r="5.602"/>
		<circle class="st17" cx="257.315" cy="180.023" r="5.602"/>
		<circle class="st17" cx="317.698" cy="180.023" r="5.602"/>
		<circle class="st17" cx="378.08" cy="180.023" r="5.602"/>
		<circle class="st16" cx="438.462" cy="180.023" r="5.602"/>
	</g>
	<g>
		<circle class="st17" cx="136.551" cy="239.412" r="5.602"/>
		<circle class="st17" cx="196.933" cy="239.412" r="5.602"/>
		<circle class="st17" cx="257.315" cy="239.412" r="5.602"/>
		<circle class="st17" cx="317.698" cy="239.412" r="5.602"/>
		<circle class="st17" cx="378.08" cy="239.412" r="5.602"/>
		<circle class="st17" cx="438.462" cy="239.412" r="5.602"/>
	</g>
	<g>
		<circle class="st16" cx="167.11" cy="151.17" r="5.602"/>
		<circle class="st16" cx="110.568" cy="151.17" r="5.602"/>
		<circle class="st17" cx="227.493" cy="151.17" r="5.602"/>
		<circle class="st17" cx="287.875" cy="151.17" r="5.602"/>
		<circle class="st17" cx="348.257" cy="151.17" r="5.602"/>
		<circle class="st16" cx="408.64" cy="151.17" r="5.602"/>
		<circle class="st16" cx="469.022" cy="151.17" r="5.602"/>
	</g>
	<g>
		<circle class="st17" cx="167.11" cy="212.607" r="5.602"/>
		<circle class="st16" cx="110.568" cy="212.607" r="5.602"/>
		<circle class="st17" cx="227.493" cy="212.607" r="5.602"/>
		<circle class="st17" cx="287.875" cy="212.607" r="5.602"/>
		<circle class="st17" cx="348.257" cy="212.607" r="5.602"/>
		<circle class="st17" cx="408.64" cy="212.607" r="5.602"/>
		<circle class="st16" cx="469.022" cy="212.607" r="5.602"/>
	</g>
	<g>
		<circle class="st17" cx="167.11" cy="274.045" r="5.602"/>
		<circle class="st17" cx="110.568" cy="274.045" r="5.602"/>
		<circle class="st17" cx="227.493" cy="274.045" r="5.602"/>
		<circle class="st17" cx="287.875" cy="274.045" r="5.602"/>
		<circle class="st17" cx="348.257" cy="274.045" r="5.602"/>
		<circle class="st17" cx="408.64" cy="274.045" r="5.602"/>
		<circle class="st17" cx="469.022" cy="274.045" r="5.602"/>
	</g>
	<g>
		<circle class="st16" cx="167.11" cy="90.097" r="5.602"/>
		<circle class="st16" cx="110.568" cy="90.097" r="5.602"/>
		<circle class="st16" cx="227.493" cy="90.097" r="5.602"/>
		<circle class="st17" cx="287.875" cy="90.097" r="5.602"/>
		<circle class="st16" cx="348.257" cy="90.097" r="5.602"/>
		<circle class="st16" cx="408.64" cy="90.097" r="5.602"/>
		<circle class="st16" cx="469.022" cy="90.097" r="5.602"/>
	</g>
	<line class="st18" x1="169.841" y1="297.56" x2="169.841" y2="515.505"/>
	<line class="st18" x1="110.331" y1="297.56" x2="110.331" y2="515.505"/>
	<line class="st18" x1="229.351" y1="297.56" x2="229.351" y2="515.505"/>
	<line class="st18" x1="288.862" y1="297.56" x2="288.862" y2="515.505"/>
	<line class="st18" x1="348.372" y1="297.56" x2="348.372" y2="515.505"/>
	<line class="st18" x1="407.882" y1="297.56" x2="407.882" y2="515.505"/>
	<line class="st18" x1="469.022" y1="297.56" x2="469.022" y2="515.505"/>
	<g>
		<circle class="st15" cx="243.384" cy="503.437" r="8.51"/>
		<circle class="st15" cx="259.6" cy="494.167" r="8.51"/>
		<circle class="st15" cx="243.384" cy="484.342" r="8.51"/>
		<circle class="st15" cx="259.6" cy="475.072" r="8.51"/>
		<circle class="st15" cx="243.384" cy="465.247" r="8.51"/>
		<circle class="st15" cx="259.6" cy="455.976" r="8.51"/>
		<circle class="st15" cx="243.384" cy="446.151" r="8.51"/>
		<circle class="st15" cx="259.6" cy="436.881" r="8.51"/>
		<circle class="st15" cx="243.384" cy="427.056" r="8.51"/>
		<circle class="st15" cx="259.6" cy="417.786" r="8.51"/>
		<circle class="st15" cx="243.384" cy="407.961" r="8.51"/>
		<circle class="st15" cx="259.6" cy="398.69" r="8.51"/>
		<circle class="st15" cx="243.384" cy="388.865" r="8.51"/>
		<circle class="st15" cx="259.6" cy="379.595" r="8.51"/>
		<circle class="st15" cx="243.384" cy="369.77" r="8.51"/>
		<circle class="st15" cx="275.816" cy="503.437" r="8.51"/>
		<circle class="st15" cx="275.816" cy="484.342" r="8.51"/>
		<circle class="st15" cx="275.816" cy="465.247" r="8.51"/>
		<circle class="st15" cx="275.816" cy="446.151" r="8.51"/>
		<circle class="st15" cx="275.816" cy="427.056" r="8.51"/>
		<circle class="st15" cx="275.816" cy="407.961" r="8.51"/>
		<circle class="st15" cx="275.816" cy="388.865" r="8.51"/>
		<circle class="st15" cx="275.816" cy="369.77" r="8.51"/>
		<circle class="st15" cx="259.6" cy="360.5" r="8.51"/>
		<circle class="st15" cx="243.384" cy="351.433" r="8.51"/>
		<circle class="st15" cx="275.816" cy="351.433" r="8.51"/>
		<circle class="st15" cx="259.6" cy="342.163" r="8.51"/>
		<circle class="st15" cx="243.384" cy="333.097" r="8.51"/>
		<circle class="st15" cx="275.816" cy="333.097" r="8.51"/>
		<circle class="st15" cx="259.6" cy="323.827" r="8.51"/>
		<circle class="st15" cx="275.816" cy="314.76" r="8.51"/>
	</g>
	<g>
		<circle class="st15" cx="183.951" cy="503.437" r="8.51"/>
		<circle class="st15" cx="200.166" cy="494.167" r="8.51"/>
		<circle class="st15" cx="183.951" cy="484.342" r="8.51"/>
		<circle class="st15" cx="200.166" cy="475.072" r="8.51"/>
		<circle class="st15" cx="183.951" cy="465.247" r="8.51"/>
		<circle class="st15" cx="200.166" cy="455.976" r="8.51"/>
		<circle class="st15" cx="183.951" cy="446.151" r="8.51"/>
		<circle class="st15" cx="200.166" cy="436.881" r="8.51"/>
		<circle class="st15" cx="183.951" cy="427.056" r="8.51"/>
		<circle class="st15" cx="200.166" cy="417.786" r="8.51"/>
		<circle class="st15" cx="183.951" cy="407.961" r="8.51"/>
		<circle class="st15" cx="200.166" cy="398.69" r="8.51"/>
		<circle class="st15" cx="216.382" cy="503.437" r="8.51"/>
		<circle class="st15" cx="216.382" cy="484.342" r="8.51"/>
		<circle class="st15" cx="216.382" cy="465.247" r="8.51"/>
		<circle class="st15" cx="216.382" cy="446.151" r="8.51"/>
		<circle class="st15" cx="216.382" cy="427.056" r="8.51"/>
		<circle class="st15" cx="216.382" cy="407.961" r="8.51"/>
	</g>
	<circle class="st15" cx="124.517" cy="503.437" r="8.51"/>
	<circle class="st15" cx="140.733" cy="494.167" r="8.51"/>
	<circle class="st15" cx="124.517" cy="484.342" r="8.51"/>
	<circle class="st15" cx="140.733" cy="475.072" r="8.51"/>
	<circle class="st15" cx="156.948" cy="503.437" r="8.51"/>
	<circle class="st15" cx="97.438" cy="503.437" r="8.51"/>
	<circle class="st15" cx="156.948" cy="484.342" r="8.51"/>
	<g>
		<circle class="st15" cx="302.371" cy="503.437" r="8.51"/>
		<circle class="st15" cx="318.587" cy="494.167" r="8.51"/>
		<circle class="st15" cx="302.371" cy="484.342" r="8.51"/>
		<circle class="st15" cx="318.587" cy="475.072" r="8.51"/>
		<circle class="st15" cx="302.371" cy="465.247" r="8.51"/>
		<circle class="st15" cx="318.587" cy="455.976" r="8.51"/>
		<circle class="st15" cx="302.371" cy="446.151" r="8.51"/>
		<circle class="st15" cx="318.587" cy="436.881" r="8.51"/>
		<circle class="st15" cx="302.371" cy="427.056" r="8.51"/>
		<circle class="st15" cx="318.587" cy="417.786" r="8.51"/>
		<circle class="st15" cx="302.371" cy="407.961" r="8.51"/>
		<circle class="st15" cx="318.587" cy="398.69" r="8.51"/>
		<circle class="st15" cx="302.371" cy="388.865" r="8.51"/>
		<circle class="st15" cx="318.587" cy="379.595" r="8.51"/>
		<circle class="st15" cx="302.371" cy="369.77" r="8.51"/>
		<circle class="st15" cx="334.803" cy="503.437" r="8.51"/>
		<circle class="st15" cx="334.803" cy="484.342" r="8.51"/>
		<circle class="st15" cx="334.803" cy="465.247" r="8.51"/>
		<circle class="st15" cx="334.803" cy="446.151" r="8.51"/>
		<circle class="st15" cx="334.803" cy="427.056" r="8.51"/>
		<circle class="st15" cx="334.803" cy="407.961" r="8.51"/>
		<circle class="st15" cx="334.803" cy="388.865" r="8.51"/>
		<circle class="st15" cx="334.803" cy="369.77" r="8.51"/>
		<circle class="st15" cx="318.587" cy="360.5" r="8.51"/>
		<circle class="st15" cx="302.371" cy="351.433" r="8.51"/>
		<circle class="st15" cx="334.803" cy="351.433" r="8.51"/>
		<circle class="st15" cx="318.587" cy="342.163" r="8.51"/>
		<circle class="st15" cx="302.371" cy="333.097" r="8.51"/>
		<circle class="st15" cx="334.803" cy="333.097" r="8.51"/>
		<circle class="st15" cx="302.371" cy="314.76" r="8.51"/>
	</g>
	<g>
		<circle class="st15" cx="361.864" cy="503.437" r="8.51"/>
		<circle class="st15" cx="378.08" cy="494.167" r="8.51"/>
		<circle class="st15" cx="361.864" cy="484.342" r="8.51"/>
		<circle class="st15" cx="378.08" cy="475.072" r="8.51"/>
		<circle class="st15" cx="361.864" cy="465.247" r="8.51"/>
		<circle class="st15" cx="378.08" cy="455.976" r="8.51"/>
		<circle class="st15" cx="361.864" cy="446.151" r="8.51"/>
		<circle class="st15" cx="378.08" cy="436.881" r="8.51"/>
		<circle class="st15" cx="361.864" cy="427.056" r="8.51"/>
		<circle class="st15" cx="394.296" cy="503.437" r="8.51"/>
		<circle class="st15" cx="394.296" cy="484.342" r="8.51"/>
		<circle class="st15" cx="394.296" cy="465.247" r="8.51"/>
		<circle class="st15" cx="394.296" cy="446.151" r="8.51"/>
	</g>
	<g>
		<circle class="st15" cx="422.246" cy="503.437" r="8.51"/>
		<circle class="st15" cx="438.462" cy="494.167" r="8.51"/>
		<circle class="st15" cx="422.246" cy="484.342" r="8.51"/>
		<circle class="st15" cx="454.678" cy="503.437" r="8.51"/>
		<circle class="st15" cx="454.678" cy="484.342" r="8.51"/>
	</g>
	<g>
		<circle class="st15" cx="483.134" cy="503.437" r="8.51"/>
		<circle class="st15" cx="502.562" cy="503.437" r="8.51"/>
	</g>
</g>
</svg>
