<?xml version="1.0" encoding="utf-8"?>
<!-- Generator: Adobe Illustrator 21.1.0, SVG Export Plug-In . SVG Version: 6.00 Build 0)  -->
<svg version="1.1" id="Layer_1" xmlns="http://www.w3.org/2000/svg" xmlns:xlink="http://www.w3.org/1999/xlink" x="0px" y="0px"
	 viewBox="0 0 600 600" style="enable-background:new 0 0 600 600;" xml:space="preserve">
<style type="text/css">
	.st0{fill:#E5DECD;}
	.st1{opacity:0.5;}
	.st2{opacity:0.5;fill:none;stroke:#2F8FB0;stroke-width:0.5;stroke-miterlimit:10;}
	.st3{opacity:0.5;fill:none;stroke:#2F8FB0;stroke-miterlimit:10;}
	.st4{fill:none;stroke:#2F8FB0;stroke-width:0.5;stroke-miterlimit:10;}
	.st5{fill:none;stroke:#2F8FB0;stroke-miterlimit:10;}
	.st6{fill:#565659;}
	.st7{fill:#2F8FB0;}
	.st8{fill:none;stroke:#EB7A59;stroke-width:5;stroke-linejoin:bevel;stroke-miterlimit:10;}
	.st9{fill:none;stroke:#565659;stroke-width:5;stroke-linejoin:bevel;stroke-miterlimit:10;}
	.st10{fill:#EB7A59;}
	.st11{fill:none;stroke:#EB7A59;stroke-width:8;stroke-linejoin:bevel;stroke-miterlimit:10;}
	.st12{fill:none;stroke:#FFFFFF;stroke-width:8;stroke-linejoin:bevel;stroke-miterlimit:10;}
	.st13{fill:#565659;fill-opacity:0;}
	.st14{fill:none;stroke:#FFFFFF;stroke-width:3.5581;stroke-miterlimit:10;}
	.st15{fill:#50AD85;}
	.st16{fill:#FFFFFF;fill-opacity:0;}
	.st17{fill:#FFFFFF;}
	.st18{fill:none;stroke:#747276;stroke-width:3.5581;stroke-miterlimit:10;}
	.st19{fill:none;stroke:#FFFFFF;stroke-width:4;stroke-miterlimit:10;}
	.st20{fill:none;stroke:#FFFFFF;stroke-width:3;stroke-miterlimit:10;}
	.st21{fill:#A3649B;}
	.st22{fill:none;stroke:#FFFFFF;stroke-width:3.1417;stroke-miterlimit:10;}
	.st23{fill:none;stroke:#565659;stroke-width:3.1417;stroke-miterlimit:10;}
	.st24{fill:none;stroke:#747276;stroke-width:3.3698;stroke-miterlimit:10;}
	.st25{fill:#747276;}
	.st26{fill:none;stroke:#FFFFFF;stroke-width:2;stroke-miterlimit:10;}
	.st27{fill:none;stroke:#747276;stroke-width:2;stroke-miterlimit:10;}
	.st28{fill:none;stroke:#FFFFFF;stroke-width:3.309;stroke-miterlimit:10;}
	.st29{fill:none;stroke:#747276;stroke-width:3.309;stroke-miterlimit:10;}
	.st30{fill:none;stroke:#FFFFFF;stroke-width:3.3723;stroke-miterlimit:10;}
</style>
<g>
	<line class="st28" x1="212.538" y1="96.085" x2="212.538" y2="503.915"/>
	<line class="st28" x1="299.063" y1="96.085" x2="299.063" y2="503.915"/>
	<line class="st28" x1="126.012" y1="96.085" x2="126.012" y2="503.915"/>
	<line class="st28" x1="385.588" y1="96.085" x2="385.588" y2="503.915"/>
	<line class="st28" x1="472.113" y1="96.085" x2="472.113" y2="503.915"/>
	<line class="st28" x1="101.299" y1="475.202" x2="498.701" y2="475.202"/>
	<line class="st28" x1="101.299" y1="387.409" x2="498.701" y2="387.409"/>
	<line class="st28" x1="101.299" y1="299.616" x2="498.701" y2="299.616"/>
	<line class="st28" x1="101.299" y1="211.823" x2="498.701" y2="211.823"/>
	<line class="st28" x1="101.299" y1="124.03" x2="498.701" y2="124.03"/>
	<rect x="309.652" y="135.253" class="st21" width="65.346" height="65.346"/>
	<rect x="309.652" y="223.046" class="st21" width="65.346" height="65.346"/>
	<rect x="396.177" y="223.046" class="st21" width="65.346" height="65.346"/>
	<rect x="136.602" y="310.839" class="st21" width="65.346" height="65.346"/>
	<rect x="223.127" y="310.839" class="st21" width="65.346" height="65.346"/>
	<rect x="223.127" y="398.632" class="st21" width="65.346" height="65.346"/>
	<polyline class="st6" points="374.998,135.253 374.998,200.599 309.652,200.599 	"/>
	<g>
		<rect x="396.177" y="135.253" class="st21" width="27.272" height="27.272"/>
		<polyline class="st6" points="423.449,135.253 423.449,162.525 396.177,162.525 		"/>
	</g>
	<g>
		<rect x="434.145" y="135.253" class="st21" width="27.272" height="27.272"/>
		<polyline class="st6" points="461.417,135.253 461.417,162.525 434.145,162.525 		"/>
	</g>
	<g>
		<rect x="396.177" y="173.538" class="st21" width="27.272" height="27.272"/>
		<polyline class="st6" points="423.449,173.538 423.449,200.81 396.177,200.81 		"/>
	</g>
	<g>
		<rect x="434.145" y="173.538" class="st21" width="27.272" height="27.272"/>
		<polyline class="st6" points="461.417,173.538 461.417,200.81 434.145,200.81 		"/>
	</g>
	<g>
		<rect x="136.559" y="398.527" class="st21" width="27.272" height="27.272"/>
		<polyline class="st6" points="163.831,398.527 163.831,425.799 136.559,425.799 		"/>
	</g>
	<g>
		<rect x="174.527" y="398.527" class="st21" width="27.272" height="27.272"/>
		<polyline class="st6" points="201.799,398.527 201.799,425.799 174.527,425.799 		"/>
	</g>
	<g>
		<rect x="136.559" y="436.812" class="st21" width="27.272" height="27.272"/>
		<polyline class="st6" points="163.831,436.812 163.831,464.084 136.559,464.084 		"/>
	</g>
	<g>
		<rect x="174.527" y="436.812" class="st21" width="27.272" height="27.272"/>
		<polyline class="st6" points="201.799,436.812 201.799,464.084 174.527,464.084 		"/>
	</g>
	<polyline class="st6" points="374.998,223.046 374.998,288.393 309.652,288.393 	"/>
	<polyline class="st6" points="461.523,223.046 461.523,288.393 396.177,288.393 	"/>
	<polyline class="st6" points="201.948,310.839 201.948,376.186 136.602,376.186 	"/>
	<polyline class="st6" points="288.473,310.839 288.473,376.186 223.127,376.186 	"/>
	<g>
		<rect x="309.652" y="310.839" class="st21" width="151.872" height="151.872"/>
		<polyline class="st6" points="461.523,310.839 461.523,462.711 309.652,462.711 		"/>
	</g>
	<g>
		<rect x="136.602" y="136.838" class="st21" width="151.872" height="151.872"/>
		<polyline class="st6" points="288.473,136.838 288.473,288.71 136.602,288.71 		"/>
	</g>
	<polyline class="st6" points="288.473,398.632 288.473,463.979 223.127,463.979 	"/>
</g>
</svg>
