<?xml version="1.0" encoding="utf-8"?>
<!-- Generator: Adobe Illustrator 21.1.0, SVG Export Plug-In . SVG Version: 6.00 Build 0)  -->
<svg version="1.1" id="Layer_1" xmlns="http://www.w3.org/2000/svg" xmlns:xlink="http://www.w3.org/1999/xlink" x="0px" y="0px"
	 viewBox="0 0 600 600" style="enable-background:new 0 0 600 600;" xml:space="preserve">
<style type="text/css">
	.st0{fill:#E5DECD;}
	.st1{opacity:0.5;}
	.st2{opacity:0.5;fill:none;stroke:#2F8FB0;stroke-width:0.5;stroke-miterlimit:10;}
	.st3{opacity:0.5;fill:none;stroke:#2F8FB0;stroke-miterlimit:10;}
	.st4{fill:none;stroke:#2F8FB0;stroke-width:0.5;stroke-miterlimit:10;}
	.st5{fill:none;stroke:#2F8FB0;stroke-miterlimit:10;}
	.st6{fill:#565659;}
	.st7{fill:#2F8FB0;}
	.st8{fill:none;stroke:#EB7A59;stroke-width:5;stroke-linejoin:bevel;stroke-miterlimit:10;}
	.st9{fill:none;stroke:#565659;stroke-width:5;stroke-linejoin:bevel;stroke-miterlimit:10;}
	.st10{fill:#EB7A59;}
	.st11{fill:none;stroke:#EB7A59;stroke-width:8;stroke-linejoin:bevel;stroke-miterlimit:10;}
	.st12{fill:none;stroke:#FFFFFF;stroke-width:8;stroke-linejoin:bevel;stroke-miterlimit:10;}
	.st13{fill:#565659;fill-opacity:0;}
	.st14{fill:none;stroke:#FFFFFF;stroke-width:3.5581;stroke-miterlimit:10;}
	.st15{fill:#50AD85;}
	.st16{fill:#FFFFFF;fill-opacity:0;}
	.st17{fill:#FFFFFF;}
	.st18{fill:none;stroke:#747276;stroke-width:3.5581;stroke-miterlimit:10;}
	.st19{fill:none;stroke:#FFFFFF;stroke-width:4;stroke-miterlimit:10;}
	.st20{fill:none;stroke:#FFFFFF;stroke-width:3;stroke-miterlimit:10;}
	.st21{fill:#A3649B;}
	.st22{fill:none;stroke:#FFFFFF;stroke-width:3.1417;stroke-miterlimit:10;}
	.st23{fill:none;stroke:#565659;stroke-width:3.1417;stroke-miterlimit:10;}
	.st24{fill:none;stroke:#747276;stroke-width:3.3698;stroke-miterlimit:10;}
	.st25{fill:#747276;}
	.st26{fill:none;stroke:#FFFFFF;stroke-width:2;stroke-miterlimit:10;}
	.st27{fill:none;stroke:#747276;stroke-width:2;stroke-miterlimit:10;}
	.st28{fill:none;stroke:#FFFFFF;stroke-width:3.309;stroke-miterlimit:10;}
	.st29{fill:none;stroke:#747276;stroke-width:3.309;stroke-miterlimit:10;}
	.st30{fill:none;stroke:#FFFFFF;stroke-width:3.3723;stroke-miterlimit:10;}
</style>
<g>
	<g>
		<polyline class="st24" points="241.03,228.703 303.215,191.842 365.4,228.703 		"/>
		<polyline class="st24" points="143.153,358.48 205.338,321.619 267.522,358.48 		"/>
		<polyline class="st24" points="237.815,358.48 300,321.619 362.185,358.48 		"/>
		<polyline class="st24" points="336.054,358.48 398.239,321.619 460.424,358.48 		"/>
		<polyline class="st24" points="190.886,293.592 253.071,256.731 315.256,293.592 		"/>
		<polyline class="st24" points="287.959,293.592 350.144,256.731 412.328,293.592 		"/>
		<polyline class="st24" points="95.419,423.369 157.604,386.508 219.789,423.369 		"/>
		<polyline class="st24" points="189.155,423.369 251.34,386.508 313.525,423.369 		"/>
		<polyline class="st24" points="287.959,423.369 350.144,386.508 412.328,423.369 		"/>
		<polyline class="st24" points="380.654,423.369 442.839,386.508 505.024,423.369 		"/>
	</g>
	<rect x="272.704" y="150" class="st15" width="61.021" height="40.446"/>
	<rect x="319.633" y="214.888" class="st15" width="61.021" height="40.446"/>
	<rect x="224.166" y="214.888" class="st25" width="61.021" height="40.446"/>
	<rect x="221.756" y="344.665" class="st15" width="61.021" height="40.446"/>
	<rect x="319.633" y="344.665" class="st25" width="61.021" height="40.446"/>
	<rect x="412.328" y="344.665" class="st25" width="61.021" height="40.446"/>
	<rect x="126.289" y="344.665" class="st25" width="61.021" height="40.446"/>
	<rect x="269.49" y="279.777" class="st15" width="61.021" height="40.446"/>
	<rect x="365.4" y="279.777" class="st17" width="61.021" height="40.446"/>
	<rect x="174.023" y="279.777" class="st17" width="61.021" height="40.446"/>
	<rect x="174.023" y="409.554" class="st17" width="61.021" height="40.446"/>
	<rect x="269.49" y="409.554" class="st15" width="61.021" height="40.446"/>
	<rect x="364.957" y="409.554" class="st17" width="61.021" height="40.446"/>
	<rect x="460.424" y="409.554" class="st17" width="61.021" height="40.446"/>
	<rect x="78.555" y="409.554" class="st17" width="61.021" height="40.446"/>
</g>
</svg>
