<?xml version="1.0" encoding="utf-8"?>
<!-- Generator: Adobe Illustrator 21.1.0, SVG Export Plug-In . SVG Version: 6.00 Build 0)  -->
<svg version="1.1" id="Layer_1" xmlns="http://www.w3.org/2000/svg" xmlns:xlink="http://www.w3.org/1999/xlink" x="0px" y="0px"
	 viewBox="0 0 600 600" style="enable-background:new 0 0 600 600;" xml:space="preserve">
<style type="text/css">
	.st0{fill:#E5DECD;}
	.st1{opacity:0.5;}
	.st2{opacity:0.5;fill:none;stroke:#2F8FB0;stroke-width:0.5;stroke-miterlimit:10;}
	.st3{opacity:0.5;fill:none;stroke:#2F8FB0;stroke-miterlimit:10;}
	.st4{fill:none;stroke:#2F8FB0;stroke-width:0.5;stroke-miterlimit:10;}
	.st5{fill:none;stroke:#2F8FB0;stroke-miterlimit:10;}
	.st6{fill:#565659;}
	.st7{fill:#2F8FB0;}
	.st8{fill:none;stroke:#EB7A59;stroke-width:5;stroke-linejoin:bevel;stroke-miterlimit:10;}
	.st9{fill:none;stroke:#565659;stroke-width:5;stroke-linejoin:bevel;stroke-miterlimit:10;}
	.st10{fill:#EB7A59;}
	.st11{fill:none;stroke:#EB7A59;stroke-width:8;stroke-linejoin:bevel;stroke-miterlimit:10;}
	.st12{fill:none;stroke:#FFFFFF;stroke-width:8;stroke-linejoin:bevel;stroke-miterlimit:10;}
	.st13{fill:#565659;fill-opacity:0;}
	.st14{fill:none;stroke:#FFFFFF;stroke-width:3.5581;stroke-miterlimit:10;}
	.st15{fill:#50AD85;}
	.st16{fill:#FFFFFF;fill-opacity:0;}
	.st17{fill:#FFFFFF;}
	.st18{fill:none;stroke:#747276;stroke-width:3.5581;stroke-miterlimit:10;}
	.st19{fill:none;stroke:#FFFFFF;stroke-width:4;stroke-miterlimit:10;}
	.st20{fill:none;stroke:#FFFFFF;stroke-width:3;stroke-miterlimit:10;}
	.st21{fill:#A3649B;}
	.st22{fill:none;stroke:#FFFFFF;stroke-width:3.1417;stroke-miterlimit:10;}
	.st23{fill:none;stroke:#565659;stroke-width:3.1417;stroke-miterlimit:10;}
	.st24{fill:none;stroke:#747276;stroke-width:3.3698;stroke-miterlimit:10;}
	.st25{fill:#747276;}
	.st26{fill:none;stroke:#FFFFFF;stroke-width:2;stroke-miterlimit:10;}
	.st27{fill:none;stroke:#747276;stroke-width:2;stroke-miterlimit:10;}
	.st28{fill:none;stroke:#FFFFFF;stroke-width:3.309;stroke-miterlimit:10;}
	.st29{fill:none;stroke:#747276;stroke-width:3.309;stroke-miterlimit:10;}
	.st30{fill:none;stroke:#FFFFFF;stroke-width:3.3723;stroke-miterlimit:10;}
</style>
<g>
	<g>
		<polyline class="st30" points="240.986,228.651 303.217,191.763 365.448,228.651 		"/>
		<polyline class="st30" points="143.037,358.523 205.268,321.635 267.498,358.523 		"/>
		<polyline class="st30" points="237.769,358.523 300,321.635 362.231,358.523 		"/>
		<polyline class="st30" points="336.081,358.523 398.311,321.635 460.542,358.523 		"/>
		<polyline class="st30" points="190.806,293.587 253.037,256.699 315.267,293.587 		"/>
		<polyline class="st30" points="287.95,293.587 350.181,256.699 412.411,293.587 		"/>
		<polyline class="st30" points="95.269,423.459 157.499,386.571 219.73,423.459 		"/>
		<polyline class="st30" points="189.074,423.459 251.304,386.571 313.535,423.459 		"/>
		<polyline class="st30" points="287.95,423.459 350.181,386.571 412.411,423.459 		"/>
		<polyline class="st30" points="380.713,423.459 442.944,386.571 505.174,423.459 		"/>
	</g>
	<rect x="272.684" y="149.89" class="st15" width="61.065" height="40.476"/>
	<rect x="319.648" y="214.826" class="st15" width="61.065" height="40.476"/>
	<rect x="224.11" y="214.826" class="st17" width="61.065" height="40.476"/>
	<rect x="221.699" y="344.698" class="st15" width="61.065" height="40.476"/>
	<rect x="319.648" y="344.698" class="st17" width="61.065" height="40.476"/>
	<rect x="412.411" y="344.698" class="st17" width="61.065" height="40.476"/>
	<rect x="126.161" y="344.698" class="st17" width="61.065" height="40.476"/>
	<rect x="269.467" y="279.762" class="st15" width="61.065" height="40.476"/>
	<rect x="365.448" y="279.762" class="st6" width="61.065" height="40.476"/>
	<rect x="173.93" y="279.762" class="st6" width="61.065" height="40.476"/>
	<rect x="173.93" y="409.634" class="st6" width="61.065" height="40.476"/>
	<rect x="269.467" y="409.634" class="st15" width="61.065" height="40.476"/>
	<rect x="365.005" y="409.634" class="st6" width="61.065" height="40.476"/>
	<rect x="460.542" y="409.634" class="st6" width="61.065" height="40.476"/>
	<rect x="78.393" y="409.634" class="st6" width="61.065" height="40.476"/>
</g>
</svg>
